<svg id="Layer_1" data-name="Layer 1" xmlns="http://www.w3.org/2000/svg" viewBox="0 0 453.56 154.89"><defs><style>.cls-1{fill:#004b85;}.cls-2{fill:#00a2e5;}</style></defs><title>british council logoArtboard 1</title><path class="cls-1" d="M170,74V30.44h16a17.17,17.17,0,0,1,7.54,1.39A10.89,10.89,0,0,1,200,41.69a9.84,9.84,0,0,1-5.23,9.13V51c5,1.12,8.08,4.63,8.08,9.92,0,5.89-3.58,10.39-9.66,12.25a28,28,0,0,1-8.34.92H170m19.59-36.13a9.4,9.4,0,0,0-4.11-.72h-8V48.57H185a9.58,9.58,0,0,0,4.89-1,5.13,5.13,0,0,0,2.59-4.76,5.18,5.18,0,0,0-2.91-4.9M191.88,56a12,12,0,0,0-5-.73h-9.46v12h8.93a12.69,12.69,0,0,0,5.56-.92A5.62,5.62,0,0,0,195.13,61,5.27,5.27,0,0,0,191.88,56Z"/><rect class="cls-1" x="246.43" y="30.44" width="7.48" height="43.6"/><rect class="cls-1" x="300.71" y="30.44" width="7.47" height="43.6"/><path class="cls-1" d="M332.33,30.05a29.88,29.88,0,0,1,12.1,2.44l-.13,7.15a26.78,26.78,0,0,0-12.17-3c-4.1,0-7.61,1.26-7.61,4.7,0,8.94,22.44,5.36,22.44,20.11,0,8.14-6.89,13.3-16.89,13.3a27.41,27.41,0,0,1-14.74-3.9l3.1-6.09a22.9,22.9,0,0,0,11.91,3.45c4.51,0,8.67-1.73,8.67-5.69,0-9.34-22.23-5.23-22.23-20.12C316.78,34.41,323.13,30.05,332.33,30.05Z"/><polygon class="cls-1" points="382.35 74.04 382.35 55.25 361.17 55.25 361.17 74.04 353.7 74.04 353.7 30.44 361.17 30.44 361.17 48.31 382.35 48.31 382.35 30.44 389.82 30.44 389.82 74.04 382.35 74.04"/><path class="cls-1" d="M186.49,81.7a28.18,28.18,0,0,1,12.11,2.58l-2.26,6.35a20.08,20.08,0,0,0-9.05-2.17c-8.28,0-13.43,7-13.43,15.54s4.82,15.61,13.43,15.61a19.81,19.81,0,0,0,9.05-2.18l2.26,6.36a28.18,28.18,0,0,1-12.11,2.57c-13,0-20.51-9.13-20.51-22.23C166,91.9,173.45,81.7,186.49,81.7Z"/><path class="cls-1" d="M350.07,81.7a28.15,28.15,0,0,1,12.11,2.58l-2.25,6.35a20.14,20.14,0,0,0-9.07-2.17c-8.27,0-13.43,7-13.43,15.54s4.83,15.61,13.43,15.61a19.87,19.87,0,0,0,9.07-2.18l2.25,6.36a28.15,28.15,0,0,1-12.11,2.57c-13,0-20.51-9.13-20.51-22.23C329.56,91.9,337,81.7,350.07,81.7Z"/><path class="cls-1" d="M241.33,103.86c0,13.11-8.34,22.5-20.64,22.5s-20.64-9.06-20.64-22.16,8.33-22.5,20.64-22.5,20.64,9.07,20.64,22.16m-7.87.14c0-9.53-5.42-15.61-12.77-15.61s-12.77,6.08-12.77,15.67,5.43,15.62,12.77,15.62S233.46,113.6,233.46,104Z"/><path class="cls-1" d="M246.39,109.29V82.1h7.47v27.46c0,7.27,3.91,10,10.12,10s10.13-2.72,10.13-10V82.1h7.48v27.19c0,11.85-6.76,17.07-17.73,17.07C253.07,126.36,246.39,121.14,246.39,109.29Z"/><path class="cls-1" d="M295.64,94h-.13c.13,1.45.2,3.77.2,5.82V125.7h-7.48V82.11h8.07l20.24,29.7h.14c-.14-1.46-.2-3.77-.2-5.83V82.11H324V125.7h-6.61Z"/><rect class="cls-1" x="368.05" y="82.1" width="7.46" height="43.6"/><polygon class="cls-1" points="382.35 125.7 382.35 82.1 389.82 82.1 389.82 118.95 406.89 118.95 406.89 125.7 382.35 125.7"/><polygon class="cls-1" points="294.99 30.45 259.6 30.45 259.6 37.26 273.55 37.26 273.55 74.04 281.03 74.04 281.03 37.26 294.99 37.26 294.99 30.45"/><path class="cls-1" d="M233,74c-6.35-13.16-8-16.87-10.65-16.87h-6.94V74H207.9V30.45h14.75c11.25,0,15.55,5.95,15.55,12.57a11.12,11.12,0,0,1-8.07,11.17v.07c2,1.13,4.09,5.23,11.37,19.78Zm-9.85-36.85h-7.74V50.43h7.41c5.36,0,7.87-2.78,7.87-6.75C230.66,40.11,228.34,37.19,223.12,37.19Z"/><circle class="cls-2" cx="71.73" cy="51.39" r="24.94" transform="translate(-1.26 1.81) rotate(-1.43)"/><circle class="cls-2" cx="125.09" cy="51.39" r="24.94" transform="translate(-1.24 3.14) rotate(-1.43)"/><circle class="cls-2" cx="71.73" cy="104.75" r="24.94"/><circle class="cls-2" cx="125.09" cy="104.75" r="24.94"/></svg>