<svg id="Layer_1" data-name="Layer 1" xmlns="http://www.w3.org/2000/svg" viewBox="0 0 127.56 127.56"><defs><style>.cls-1,.cls-2{fill:#fff;}.cls-2{font-size:18px;font-family:GillSans, Gill Sans;}</style></defs><title>pcfArtboard 2</title><path class="cls-1" d="M19.9,94a1.62,1.62,0,0,1,1.85,1.66c0,.91-.62,1.63-2,1.63h-.87v2.5h-.83V94Zm-1,2.54h.95a.89.89,0,0,0,1-.91c0-.43-.23-.89-1-.89h-1Z"/><path class="cls-1" d="M23.3,96v.87h0c.38-.67.75-1,1.1-1a1.34,1.34,0,0,1,.92.44l-.41.66a1.17,1.17,0,0,0-.7-.38,1.07,1.07,0,0,0-.93,1.18v2h-.75V96Z"/><path class="cls-1" d="M26.39,95.26a.45.45,0,0,1,0-.9.45.45,0,1,1,0,.9Zm.37,4.52H26V96h.75Z"/><path class="cls-1" d="M28.72,96.47h0a1.47,1.47,0,0,1,1.14-.58c.73,0,1.3.49,1.3,1.54v2.35h-.75V97.42c0-.56-.29-.93-.75-.93a1.26,1.26,0,0,0-1,.55v2.74H28V96h.76Z"/><path class="cls-1" d="M35.16,97a1.74,1.74,0,0,0-1-.37,1.17,1.17,0,0,0-1.17,1.29,1.18,1.18,0,0,0,1.29,1.26,2.45,2.45,0,0,0,1-.25v.75a3.17,3.17,0,0,1-1.14.22,2,2,0,0,1-.06-4,2.52,2.52,0,0,1,1.11.26Z"/><path class="cls-1" d="M39.39,99.41a2.51,2.51,0,0,1-1.52.45,1.88,1.88,0,0,1-1.85-2,1.77,1.77,0,0,1,1.78-1.94c1,0,1.66.69,1.66,2.1H36.78a1.19,1.19,0,0,0,1.28,1.15,2.4,2.4,0,0,0,1.33-.46Zm-.68-1.92a.87.87,0,0,0-.89-.95,1,1,0,0,0-1,.95Z"/><path class="cls-1" d="M48.17,95.28a3.77,3.77,0,0,0-2-.61,2.21,2.21,0,0,0-2.31,2.22,2.17,2.17,0,0,0,2.35,2.2,3.82,3.82,0,0,0,2-.65v.91a4.22,4.22,0,0,1-2.1.51A3,3,0,0,1,43,97a3,3,0,0,1,3.18-3.06,5,5,0,0,1,2,.47Z"/><path class="cls-1" d="M50.05,99.78h-.76V94h.76Z"/><path class="cls-1" d="M54.22,99.56a1.19,1.19,0,0,1-.73.3c-.33,0-.51-.12-.58-.39a1.63,1.63,0,0,1-1,.39.93.93,0,0,1-.94-.94c0-.75.69-1,1.3-1.2l.67-.24v-.2a.59.59,0,0,0-.68-.68,1.58,1.58,0,0,0-1.21.63v-.82a1.55,1.55,0,0,1,1.26-.52,1.22,1.22,0,0,1,1.39,1.26v2c0,.15,0,.2.14.2a.89.89,0,0,0,.4-.21Zm-1.3-1.67c-.64.23-1.2.45-1.2.9a.52.52,0,0,0,.54.53,1,1,0,0,0,.66-.31Z"/><path class="cls-1" d="M57.45,99.78V99.3a1.68,1.68,0,0,1-1.14.56c-.77,0-1.31-.55-1.31-1.52V96h.75v2.42a.74.74,0,0,0,.79.84,1.14,1.14,0,0,0,.91-.54V96h.75v3.81Z"/><path class="cls-1" d="M61.62,97a2.18,2.18,0,0,0-1.11-.4c-.3,0-.5.15-.5.35s.26.38.93.77.86.68.86,1.07a1.15,1.15,0,0,1-1.26,1.12,2.62,2.62,0,0,1-1.33-.35v-.82a2.51,2.51,0,0,0,1.25.51c.31,0,.56-.17.56-.44,0-.52-1.78-.8-1.78-1.83,0-.65.49-1,1.26-1a2.41,2.41,0,0,1,1.12.31Z"/><path class="cls-1" d="M68.73,94.73H66.47v1.61h2.26v.75H66.47v2.69h-.83V94h3.09Z"/><path class="cls-1" d="M72.06,99.78V99.3a1.64,1.64,0,0,1-1.13.56c-.77,0-1.31-.55-1.31-1.52V96h.75v2.42a.73.73,0,0,0,.78.84,1.12,1.12,0,0,0,.91-.54V96h.76v3.81Z"/><path class="cls-1" d="M74.76,96.47h0a1.47,1.47,0,0,1,1.14-.58c.73,0,1.3.49,1.3,1.54v2.35h-.75V97.42c0-.56-.29-.93-.75-.93a1.26,1.26,0,0,0-.95.55v2.74H74V96h.76Z"/><path class="cls-1" d="M81.69,99.78h-1.6a1.8,1.8,0,0,1-1.86-2,1.83,1.83,0,0,1,1.91-1.9,2.28,2.28,0,0,1,.8.15V94h.75Zm-.75-3.07a1.8,1.8,0,0,0-.71-.14A1.2,1.2,0,0,0,79,97.89c0,.72.29,1.25,1.16,1.25h.77Z"/><path class="cls-1" d="M87.39,96.6h-.77L86,101.39H85.3l.62-4.79H85.3l.1-.63H86c.08-1.16.64-2.06,1.84-2.06a2.69,2.69,0,0,1,.92.18l-.1.71a1.58,1.58,0,0,0-.75-.21c-.7,0-1.12.48-1.2,1.38h.78Z"/><path class="cls-1" d="M89.09,99.9c-.9,0-1.43-.64-1.43-1.71,0-1.33.79-2.34,1.83-2.34.86,0,1.42.66,1.42,1.66C90.91,98.94,90.1,99.9,89.09,99.9Zm0-.62c.6,0,1.1-.76,1.1-1.81,0-.64-.27-1-.68-1-.62,0-1.09.88-1.09,1.85C88.4,98.88,88.7,99.28,89.07,99.28Z"/><path class="cls-1" d="M92.75,96.69l0,0c.45-.65.64-.8,1-.8a.59.59,0,0,1,.31.06v.81a.88.88,0,0,0-.44-.13c-.37,0-.63.23-1,1l-.29,2.15H91.6L92.14,96h.72Z"/><path class="cls-1" d="M23.07,107.28a3.77,3.77,0,0,0-2-.61,2.21,2.21,0,0,0-2.32,2.22,2.17,2.17,0,0,0,2.35,2.2,3.82,3.82,0,0,0,2-.65v.91a4.22,4.22,0,0,1-2.1.51A3,3,0,0,1,17.91,109a3,3,0,0,1,3.17-3.06,5,5,0,0,1,2,.47Z"/><path class="cls-1" d="M26.6,111.78v-.48a1.66,1.66,0,0,1-1.13.56c-.77,0-1.32-.55-1.32-1.52V108h.76v2.42c0,.53.26.84.78.84a1.14,1.14,0,0,0,.91-.54V108h.76v3.81Z"/><path class="cls-1" d="M29.33,111.78h-.76V106h.76Z"/><path class="cls-1" d="M31.43,108h1.21v.68H31.43v1.95a.53.53,0,0,0,.54.58,1.64,1.64,0,0,0,.86-.28v.7a2.17,2.17,0,0,1-.92.26,1.13,1.13,0,0,1-1.24-1.2v-2H30v-.09l1.42-1.38Z"/><path class="cls-1" d="M35.92,111.78v-.48a1.64,1.64,0,0,1-1.13.56c-.77,0-1.31-.55-1.31-1.52V108h.75v2.42a.74.74,0,0,0,.79.84,1.11,1.11,0,0,0,.9-.54V108h.76v3.81Z"/><path class="cls-1" d="M38.69,108v.87h0c.38-.67.74-1,1.1-1a1.32,1.32,0,0,1,.91.44l-.4.66a1.22,1.22,0,0,0-.71-.38,1.07,1.07,0,0,0-.92,1.18v2h-.76V108Z"/><path class="cls-1" d="M44.39,111.41a2.51,2.51,0,0,1-1.52.45,1.88,1.88,0,0,1-1.85-2,1.77,1.77,0,0,1,1.78-1.94c1,0,1.66.69,1.66,2.1H41.78a1.19,1.19,0,0,0,1.28,1.15,2.4,2.4,0,0,0,1.33-.46Zm-.68-1.92a.87.87,0,0,0-.89-.95,1,1,0,0,0-1,.95Z"/><path class="cls-1" d="M51.09,111.56a1.21,1.21,0,0,1-.73.3c-.33,0-.51-.12-.58-.39a1.66,1.66,0,0,1-1,.39.92.92,0,0,1-.93-.94c0-.75.68-1,1.3-1.2l.67-.24v-.2c0-.48-.23-.68-.69-.68a1.6,1.6,0,0,0-1.21.63v-.82a1.57,1.57,0,0,1,1.27-.52,1.22,1.22,0,0,1,1.38,1.26v2c0,.15.06.2.15.2a.89.89,0,0,0,.4-.21Zm-1.3-1.67c-.65.23-1.21.45-1.21.9a.52.52,0,0,0,.55.53,1,1,0,0,0,.66-.31Z"/><path class="cls-1" d="M52.63,108.47h0a1.47,1.47,0,0,1,1.14-.58c.73,0,1.3.49,1.3,1.54v2.35h-.75v-2.36c0-.56-.29-.93-.75-.93a1.26,1.26,0,0,0-.95.55v2.74h-.76V108h.76Z"/><path class="cls-1" d="M59.56,111.78H58a1.8,1.8,0,0,1-1.86-2,1.83,1.83,0,0,1,1.91-1.9,2.28,2.28,0,0,1,.8.15V106h.75Zm-.75-3.07a1.8,1.8,0,0,0-.71-.14,1.2,1.2,0,0,0-1.22,1.32c0,.72.29,1.25,1.16,1.25h.77Z"/><path class="cls-1" d="M63.57,106h2.25a2.86,2.86,0,0,1,3.08,2.89,2.92,2.92,0,0,1-3.07,2.9H63.57Zm.83,5h1.32a2.13,2.13,0,0,0,2.33-2.15,2.1,2.1,0,0,0-2.37-2.15H64.4Z"/><path class="cls-1" d="M73.15,111.41a2.54,2.54,0,0,1-1.53.45,1.88,1.88,0,0,1-1.85-2,1.78,1.78,0,0,1,1.79-1.94c1,0,1.65.69,1.65,2.1H70.53a1.2,1.2,0,0,0,1.28,1.15,2.46,2.46,0,0,0,1.34-.46Zm-.68-1.92a.89.89,0,0,0-.9-.95,1,1,0,0,0-1,.95Z"/><path class="cls-1" d="M73.52,108h.82l1,2.34,1-2.34h.8l-1.68,3.89h-.25Z"/><path class="cls-1" d="M80.9,111.41a2.53,2.53,0,0,1-1.52.45,1.88,1.88,0,0,1-1.85-2,1.77,1.77,0,0,1,1.78-1.94c1,0,1.66.69,1.66,2.1H78.28a1.2,1.2,0,0,0,1.29,1.15,2.43,2.43,0,0,0,1.33-.46Zm-.68-1.92a.88.88,0,0,0-.89-.95,1,1,0,0,0-1,.95Z"/><path class="cls-1" d="M82.68,111.78h-.75V106h.75Z"/><path class="cls-1" d="M87.75,109.84a2,2,0,1,1-2.07-2A1.95,1.95,0,0,1,87.75,109.84Zm-3.31,0a1.27,1.27,0,1,0,1.24-1.27A1.21,1.21,0,0,0,84.44,109.84Z"/><path class="cls-1" d="M89.42,113.74h-.75V108H90c1.39,0,2.15.68,2.15,1.93a1.87,1.87,0,0,1-1.94,2,1.92,1.92,0,0,1-.77-.17Zm0-2.73a1.69,1.69,0,0,0,.72.17,1.22,1.22,0,0,0,1.21-1.29,1.11,1.11,0,0,0-1.24-1.24h-.69Z"/><path class="cls-1" d="M93.82,108v.5a1.63,1.63,0,0,1,1.11-.58,1.26,1.26,0,0,1,1.14.69,1.69,1.69,0,0,1,1.28-.69c.77,0,1.26.59,1.26,1.49v2.4h-.75v-2.36a.8.8,0,0,0-.79-.89,1.34,1.34,0,0,0-.85.48v2.77h-.76v-2.37c0-.62-.31-.88-.69-.88a1.13,1.13,0,0,0-1,.48v2.77h-.76V108Z"/><path class="cls-1" d="M103,111.41a2.49,2.49,0,0,1-1.52.45,1.88,1.88,0,0,1-1.85-2,1.78,1.78,0,0,1,1.79-1.94c1,0,1.65.69,1.65,2.1h-2.68a1.2,1.2,0,0,0,1.28,1.15,2.4,2.4,0,0,0,1.33-.46Zm-.67-1.92a.89.89,0,0,0-.9-.95,1,1,0,0,0-1,.95Z"/><path class="cls-1" d="M104.72,108.47h0a1.47,1.47,0,0,1,1.14-.58c.72,0,1.3.49,1.3,1.54v2.35h-.75v-2.36c0-.56-.29-.93-.75-.93a1.26,1.26,0,0,0-1,.55v2.74H104V108h.76Z"/><path class="cls-1" d="M109.24,108h1.21v.68h-1.21v1.95a.53.53,0,0,0,.54.58,1.64,1.64,0,0,0,.86-.28v.7a2.17,2.17,0,0,1-.92.26,1.13,1.13,0,0,1-1.24-1.2v-2h-.66v-.09l1.42-1.38Z"/><path class="cls-1" d="M24.19,57H19.58v3.27h4.61v1.53H19.58v5.49h-1.7V55.42h6.31Z"/><path class="cls-1" d="M40.05,63.13a4.11,4.11,0,0,1-4.37,4.27,4.2,4.2,0,1,1,0-8.39A4.1,4.1,0,0,1,40.05,63.13Zm-7,0a2.68,2.68,0,1,0,5.35,0,2.62,2.62,0,0,0-2.74-2.69A2.56,2.56,0,0,0,33.06,63.13Z"/><path class="cls-1" d="M51.08,60.23h0A3.13,3.13,0,0,1,53.53,59c1.52,0,2.74,1,2.74,3.25v5H54.68v-5c0-1.18-.62-2-1.59-2a2.65,2.65,0,0,0-2,1.16v5.79h-1.6V59.17h1.6Z"/><path class="cls-1" d="M72.46,67.24H69.07c-2.41,0-3.92-1.64-3.92-4.22a3.86,3.86,0,0,1,4-4,4.78,4.78,0,0,1,1.69.32V55h1.6Zm-1.6-6.49a3.78,3.78,0,0,0-1.49-.3,2.55,2.55,0,0,0-2.59,2.8c0,1.51.62,2.64,2.47,2.64h1.61Z"/><path class="cls-1" d="M87.21,61.26a4.44,4.44,0,0,0-2.33-.85c-.65,0-1.06.31-1.06.74s.54.79,2,1.61S87.59,64.2,87.59,65a2.42,2.42,0,0,1-2.66,2.37,5.57,5.57,0,0,1-2.8-.74V64.94A5.12,5.12,0,0,0,84.77,66c.65,0,1.19-.34,1.19-.92,0-1.11-3.78-1.7-3.78-3.88,0-1.36,1-2.19,2.66-2.19a5.07,5.07,0,0,1,2.37.66Z"/><path class="cls-1" d="M87.18,20.76A17.28,17.28,0,0,0,78.13,18c-6,0-10.47,4.27-10.47,10s4.31,10,10.63,10a17.15,17.15,0,0,0,9.16-3V39.2a19.22,19.22,0,0,1-9.51,2.31c-9.86,0-14.17-7.58-14.17-13.09,0-8,6-13.86,14.4-13.86a22.68,22.68,0,0,1,9,2.16Z"/><path class="cls-1" d="M30.6,13.82c0,.08-.07.13-.08.18s-.14.08-.14.16l-.14.18v0a.43.43,0,0,0-.18.25c-.07,0-.07.08-.11.13s0,.06,0,.09l-.06.13V15s0,0-.06.06,0,0,0,.08,0,.11-.06.15l0,0h0c0,.06.06,0,0,.09H30v0s.05,0,.09,0,.2,0,.26-.13h0c.31-.06.48-.38.73-.54l.23-.2c0,.72,0,1.4,0,2.12,0,0-.05,0-.09,0s0,0,0,0a0,0,0,0,0,0-.05.61.61,0,0,0-.17-.15s0,0,0,0-.17-.16-.27-.18-.07,0-.09-.08h0s0,0,0,0h0c0-.05-.1-.08-.15-.11s-.15-.1-.22-.1,0,0-.06,0-.28,0-.36-.05,0,.26,0,.41.09.15.16.22a.17.17,0,0,0,.05.16h0c0,.08,0,.13.08.15a1.19,1.19,0,1,1-1.71.93,1.18,1.18,0,0,1,.76-1c.08,0,0-.14.07-.14l0-.08h0c0-.05.08-.08.08-.16h0c.1-.13.05-.33.06-.5,0,0,0,0,0,0h0s-.06,0-.07,0v0c-.09,0-.21,0-.27.1s0,0-.07,0-.05,0-.08,0a1.64,1.64,0,0,0-.48.27v0h0c-.06.09-.17.12-.23.2s-.09,0-.06.07-.06.07-.12,0,0,0-.07,0V14.54h0c.15.09.27.25.41.35l.43.36h0s.14,0,.16.06.06.09.1.05.08,0,.1,0a.42.42,0,0,0,.25.06s0,0,0,0,0,0,0,0-.08-.3-.11-.45a.39.39,0,0,1-.06-.13h0c0-.08-.07-.11-.08-.19s0-.07-.07-.1l0,0c0-.07-.12,0-.1-.11-.14-.19-.29-.35-.44-.52v0Z"/><path class="cls-1" d="M29.8,15.18v0Z"/><path class="cls-1" d="M27.37,18.33a.5.5,0,0,1,0,.49.48.48,0,0,1-.46.23.5.5,0,0,1-.37-.3.41.41,0,0,1,0-.22.44.44,0,0,1,.28-.37A.48.48,0,0,1,27.37,18.33Z"/><path class="cls-1" d="M32.21,18.14a.13.13,0,0,0,.08,0,.48.48,0,0,1,.26.37.45.45,0,0,1-.68.45.47.47,0,0,1-.22-.43.47.47,0,0,1,.33-.41c.06,0,.15,0,.2,0Z"/><path class="cls-1" d="M25.59,18.82a.46.46,0,0,1,0,.44.46.46,0,0,1-.74.06.53.53,0,0,1-.1-.34A.47.47,0,0,1,25,18.6.49.49,0,0,1,25.59,18.82Z"/><path class="cls-1" d="M34.05,18.59a.48.48,0,0,1,.3.4.47.47,0,0,1-.18.42.58.58,0,0,1-.41.05.45.45,0,0,1-.08-.82.94.94,0,0,1,.22-.07S34,18.57,34.05,18.59Z"/><path class="cls-1" d="M28.63,19.31a7.69,7.69,0,0,0-.25,1.84,10,10,0,0,0,.05,1.23,6.08,6.08,0,0,0,.2,1.13c.07.07,0,.22.15.22s0,.07,0,.11h0c-.07.06-.11,0-.15,0a2.29,2.29,0,0,1-.44-.93,7.33,7.33,0,0,1,0-2.76,1.88,1.88,0,0,1,.42-1C28.78,19,28.64,19.26,28.63,19.31Z"/><path class="cls-1" d="M30.79,19.64a6.61,6.61,0,0,1-.05,3.69,2.36,2.36,0,0,1-.24.4v0a.15.15,0,0,0-.08,0h0s0,0,0,.07,0,0,0,0-.1,0-.1-.06,0-.07,0-.11.08,0,.09,0,0,0,0,0h0a8.51,8.51,0,0,0,.27-3,6.1,6.1,0,0,0-.29-1.52v0C30.62,19.19,30.7,19.44,30.79,19.64Z"/><path class="cls-1" d="M24.05,19.5a.48.48,0,0,1,0,.42.51.51,0,0,1-.35.2.51.51,0,0,1-.43-.22.47.47,0,0,1,0-.5.48.48,0,0,1,.43-.17A.45.45,0,0,1,24.05,19.5Z"/><path class="cls-1" d="M35.87,19.49a.46.46,0,0,1-.11.53.5.5,0,0,1-.43.09c-.16,0-.22-.16-.29-.27a.51.51,0,0,1,0-.42.53.53,0,0,1,.5-.18A.48.48,0,0,1,35.87,19.49Z"/><path class="cls-1" d="M29.85,19.58a.4.4,0,0,1-.31.65.42.42,0,0,1-.37-.28.38.38,0,0,1,.11-.41.47.47,0,0,1,.43-.07Z"/><path class="cls-1" d="M21.86,19.93a.46.46,0,1,1-.78.49.52.52,0,0,1,0-.47.44.44,0,0,1,.49-.17A.46.46,0,0,1,21.86,19.93Z"/><path class="cls-1" d="M38,20a.52.52,0,0,1-.08.52.48.48,0,0,1-.36.12.46.46,0,0,1-.39-.29.46.46,0,0,1,.11-.49.49.49,0,0,1,.44-.1C37.81,19.83,38,19.9,38,20Z"/><path class="cls-1" d="M20.51,20.82a.46.46,0,0,1-.1.48.45.45,0,0,1-.49.11.53.53,0,0,1-.26-.27.52.52,0,0,1,.08-.47.54.54,0,0,1,.57-.08A.45.45,0,0,1,20.51,20.82Z"/><path class="cls-1" d="M39.36,20.7a.52.52,0,0,1,.09.37.48.48,0,0,1-.22.31.49.49,0,0,1-.47,0,.46.46,0,0,1-.2-.47.49.49,0,0,1,.27-.34A.48.48,0,0,1,39.36,20.7Z"/><path class="cls-1" d="M29.92,20.82a.43.43,0,0,1-.11.43.41.41,0,0,1-.43.05.43.43,0,0,1-.2-.22.38.38,0,0,1,.11-.43c.05,0,.08-.09.15-.07s.06,0,.07,0A.4.4,0,0,1,29.92,20.82Z"/><path class="cls-1" d="M23.46,20.83a.5.5,0,0,1-.09.51.57.57,0,0,1-.35.14.52.52,0,0,1-.41-.3.56.56,0,0,1,.05-.44.52.52,0,0,1,.58-.14A.54.54,0,0,1,23.46,20.83Z"/><path class="cls-1" d="M36.47,20.83a.63.63,0,0,1,0,.33.46.46,0,0,1-.41.32.61.61,0,0,1-.37-.15.5.5,0,0,1-.08-.46.48.48,0,0,1,.3-.29A.47.47,0,0,1,36.47,20.83Z"/><path class="cls-1" d="M19.28,21.72a.47.47,0,0,1,0,.46.39.39,0,0,1-.37.23.44.44,0,0,1-.4-.7.47.47,0,0,1,.38-.2A.46.46,0,0,1,19.28,21.72Z"/><path class="cls-1" d="M40.6,21.78a.52.52,0,0,1,0,.37.53.53,0,0,1-.33.26.5.5,0,0,1-.37-.08.45.45,0,1,1,.68-.55Z"/><path class="cls-1" d="M29.92,21.92a.53.53,0,0,1,0,.33.4.4,0,0,1-.72,0,.4.4,0,0,1,.09-.42.42.42,0,0,1,.42-.08A.47.47,0,0,1,29.92,21.92Z"/><path class="cls-1" d="M23.05,22.38a.47.47,0,0,1-.06.43.46.46,0,0,1-.38.19.46.46,0,0,1-.36-.71.48.48,0,0,1,.41-.2A.48.48,0,0,1,23.05,22.38Z"/><path class="cls-1" d="M36.83,22.26a.56.56,0,0,1,.09.38.46.46,0,0,1-.82.17.52.52,0,0,1-.07-.37.46.46,0,0,1,.37-.34A.5.5,0,0,1,36.83,22.26Z"/><path class="cls-1" d="M29.83,22.91a.41.41,0,0,1,.07.46.4.4,0,0,1-.39.21.45.45,0,0,1-.33-.25.4.4,0,0,1,.1-.42A.41.41,0,0,1,29.83,22.91Z"/><path class="cls-1" d="M18.57,23.5a.48.48,0,0,1,0,.49.45.45,0,0,1-.48.2.52.52,0,0,1-.33-.3.48.48,0,0,1,.08-.45.53.53,0,0,1,.5-.14C18.41,23.35,18.52,23.39,18.57,23.5Z"/><path class="cls-1" d="M41.33,23.58a.48.48,0,0,1-.16.54.51.51,0,0,1-.48,0,.45.45,0,0,1-.23-.38.48.48,0,0,1,.27-.45.51.51,0,0,1,.45.05A.62.62,0,0,1,41.33,23.58Z"/><path class="cls-1" d="M23.42,23.55a.19.19,0,0,0,.09,0,.46.46,0,0,1,.24.43.44.44,0,0,1-.25.39.49.49,0,0,1-.48,0,.54.54,0,0,1-.18-.42.43.43,0,0,1,.28-.36A.49.49,0,0,1,23.42,23.55Z"/><path class="cls-1" d="M36.17,23.73a.54.54,0,0,1,.08.36.43.43,0,0,1-.34.36.46.46,0,0,1-.56-.43.45.45,0,0,1,.27-.43A.45.45,0,0,1,36.17,23.73Z"/><path class="cls-1" d="M18.81,25.18a.48.48,0,0,1,0,.37.47.47,0,0,1-.26.29.52.52,0,0,1-.5-.09.56.56,0,0,1-.13-.37.45.45,0,0,1,.26-.37A.47.47,0,0,1,18.81,25.18Z"/><path class="cls-1" d="M41.06,25.17a.47.47,0,0,1,0,.51.42.42,0,0,1-.34.2.47.47,0,0,1-.43-.22.51.51,0,0,1,0-.45.44.44,0,0,1,.44-.23A.47.47,0,0,1,41.06,25.17Z"/><path class="cls-1" d="M28.36,28.49s0,0,0,0l0,0S28.36,28.49,28.36,28.49Z"/><path class="cls-1" d="M27.89,28.83a.2.2,0,0,1,0,.21.19.19,0,0,1-.23.06c-.06,0-.13-.1-.12-.18s0-.11.08-.16A.19.19,0,0,1,27.89,28.83Z"/><path class="cls-1" d="M31.51,28.79c0,.07.09.17,0,.24a.22.22,0,0,1-.14.09.3.3,0,0,1-.18-.08.24.24,0,0,1,0-.23c0-.06.1-.06.15-.08A.25.25,0,0,1,31.51,28.79Z"/><path class="cls-1" d="M29.59,28.8c.36.27.72.49,1.1.75v0l-1.12.77c-.06,0-.06-.05-.11-.05-.35-.23-.67-.5-1-.7,0-.06,0-.06.07-.1.37-.21.66-.48,1-.7Z"/><path class="cls-1" d="M26.82,29.37a.32.32,0,0,1,.1.29,1,1,0,0,1-.62.5h0l-.15,0h0a1,1,0,0,1-.72-.07.32.32,0,0,1-.13-.3,1,1,0,0,1,.78-.53c.07-.06.15,0,.24-.05A.91.91,0,0,1,26.82,29.37Z"/><path class="cls-1" d="M33.08,29.3c.28.1.64.21.71.55a.31.31,0,0,1-.17.3,1.27,1.27,0,0,1-1.32-.28.38.38,0,0,1-.11-.38.65.65,0,0,1,.62-.23l.18,0S33.05,29.29,33.08,29.3Z"/><path class="cls-1" d="M24.56,29.38c0,.08,0,.18,0,.24s-.14,0-.21,0a.25.25,0,0,1-.12-.13.2.2,0,0,1,.36-.15Z"/><path class="cls-1" d="M34.86,29.38a.23.23,0,0,1,0,.26c-.06,0-.15,0-.22,0a.31.31,0,0,1-.09-.14.17.17,0,0,1,0-.18C34.64,29.27,34.83,29.27,34.86,29.38Z"/><path class="cls-1" d="M23.67,29.61l0,0Z"/><path class="cls-1" d="M27.88,29.85a.2.2,0,0,1,0,.27.22.22,0,0,1-.21,0c-.05,0-.12-.11-.1-.19a.19.19,0,0,1,.11-.17A.21.21,0,0,1,27.88,29.85Z"/><path class="cls-1" d="M31.5,29.84a.21.21,0,0,1,0,.24.19.19,0,0,1-.18.09.16.16,0,0,1-.15-.11.21.21,0,0,1,.05-.24A.2.2,0,0,1,31.5,29.84Z"/><path class="cls-1" d="M37.14,30v0Z"/><path class="cls-1" d="M24.74,30.42c.05.06,0,.14,0,.21a.28.28,0,0,1-.2.08c-.05,0-.14-.07-.14-.15a.2.2,0,0,1,.06-.19A.18.18,0,0,1,24.74,30.42Z"/><path class="cls-1" d="M34.65,30.37c.06.05,0,.13.05.2a.19.19,0,0,1-.1.13.18.18,0,0,1-.19,0c-.09,0-.08-.16-.06-.24a.23.23,0,0,1,.12-.1C34.55,30.31,34.58,30.35,34.65,30.37Z"/><path class="cls-1" d="M23.31,31.51h0v0S23.32,31.51,23.31,31.51Z"/><path class="cls-1" d="M23.13,31.58h0Z"/><path class="cls-1" d="M22.06,32.54h0Z"/><path class="cls-1" d="M22,33.12s0,0,0,0S22,33.1,22,33.12Z"/><polygon class="cls-1" points="22.06 33.29 22.03 33.27 22.07 33.28 22.06 33.29"/><path class="cls-1" d="M35.56,32.69a2,2,0,0,0-.86-.4,2.14,2.14,0,0,0-.34-.09c-.42-.11-.81-.15-1.24-.23h0a.46.46,0,0,0-.2,0s-.12,0-.17,0l-.22,0-.38,0a3.48,3.48,0,0,1-.47,0c-.43,0-.88,0-1.32,0-.21,0-.41,0-.67,0-.05,0-.1-.05-.15,0h-.64a10.71,10.71,0,0,0-1.24,0c-.06,0-.15,0-.2,0h-.34s-.11,0-.13,0c-.21,0-.37,0-.59.05a1.55,1.55,0,0,0-.31,0l-.22,0h0c-.12.05-.25,0-.37.07l-.37,0a5.92,5.92,0,0,0-1,.28c-.21.11-.54.17-.6.45a.32.32,0,0,0,.09.24,4,4,0,0,0,1.57.57,15.29,15.29,0,0,0,1.69.22c.68.07,1.36.1,2.07.12.28,0,.56,0,.85,0h.6c.17,0,.39,0,.56,0a11,11,0,0,0,1.16-.07,14.53,14.53,0,0,0,2.06-.27,1.92,1.92,0,0,0,.3-.08,3,3,0,0,0,.52-.12c.25-.12.59-.21.7-.5A.34.34,0,0,0,35.56,32.69Zm-1.69,0c.1,0,.21,0,.32,0s0,.07,0,.11l-.31,0A.11.11,0,0,1,33.87,32.65Zm.26.16-.18,0,.1,0Zm-.78-.15a1.31,1.31,0,0,0,.28,0,.22.22,0,0,1,0,.11c-.07,0-.14,0-.18,0s-.1,0-.15,0S33.28,32.66,33.35,32.66Zm.3.19a.5.5,0,0,1-.19,0c0-.05.06,0,.08,0S33.61,32.83,33.65,32.85Zm-.36,0c.06,0,.11,0,.16,0s-.07,0-.1,0h-.06Zm0,.22c.13,0,.29,0,.42,0v.08c-.1,0-.18,0-.28,0h-.14A.11.11,0,0,1,33.27,33.09Zm-.4-.72s0,0,0,0Zm-.1.32a1.93,1.93,0,0,0,.34,0s0,0,0,.07a.08.08,0,0,0,0,.13h0v0l-.4,0Zm-.06.4h.44v.09l-.29,0h0s0,0-.06.06l-.12,0Zm-.32-.7v0s.1,0,.14,0H32.4v0h0Zm0,.31h.26V33c-.05,0-.13,0-.19,0s-.08,0-.11,0A2.23,2.23,0,0,0,32.36,32.7Zm-.43-.33h0a.14.14,0,0,1,.17,0v.11c-.05,0-.1,0-.17,0s0-.08,0-.15Zm-.21-.06s0,0,0,0h.06s0,.06,0,.09a.55.55,0,0,1-.1.11C31.72,32.47,31.69,32.38,31.72,32.31Zm0,.41c.05,0,.17,0,.16.05a0,0,0,0,0,.07,0c0-.12.13,0,.19-.07s0,.19.06.28c-.16,0-.36,0-.51,0Zm-.3-.5a2.09,2.09,0,0,1,0,.34h-.06A1,1,0,0,1,31.38,32.22Zm-.21,0s0,0,.06,0,0,.13,0,.17,0,.14,0,.21H31.1C31.13,32.45,31.15,32.33,31.17,32.2Zm-.61,0c.05,0,.08-.08.12,0s.09,0,.12,0,0,.27,0,.4a2.13,2.13,0,0,1-.37,0C30.5,32.49,30.54,32.34,30.56,32.21Zm-.69-.1-.07,0v0Zm-.5,0h0Zm-.46.12H29c.05.14,0,.28,0,.4h-.09A2.67,2.67,0,0,1,28.91,32.23Zm-.58,0h.22l0,0,.08.37h-.37Zm-.43,0s0,0,.06,0l.07.35h-.16A2,2,0,0,0,27.9,32.25Zm0,.48c.07,0,.23,0,.19.09a.34.34,0,0,0,0,.14s-.1,0-.12,0a.14.14,0,0,0-.09,0s0,0,0,0v-.06h0C27.88,32.84,27.85,32.79,27.88,32.73Zm-.14-.51c.08.07,0,.2,0,.29v.05H27.7C27.71,32.44,27.73,32.33,27.74,32.22Zm-.07.51h.08a.67.67,0,0,0,0,.2s-.05,0-.1,0Zm-.27-.45c0,.08,0,.16,0,.24H27.3C27.34,32.43,27.24,32.25,27.4,32.28Zm-.18.43c.09,0,.28-.08.24.1v.12c-.06,0-.12,0-.17,0s-.05,0-.08,0A1.62,1.62,0,0,1,27.22,32.71Zm-.14-.38s.07,0,0,.06h0s0,.05,0,.08H27C27,32.42,27,32.34,27.08,32.33Zm-.08.38h.13a1.62,1.62,0,0,0,0,.22.37.37,0,0,1-.15,0Zm-.26-.3c0,.05-.1,0-.11,0S26.73,32.36,26.74,32.41Zm-.22.29h.12s.07,0,.11,0l0,.23c-.09-.06-.17,0-.29,0S26.47,32.73,26.52,32.7Zm-.4,0s-.07,0-.1,0h0s0-.06,0-.07a1.16,1.16,0,0,0,.32,0c0,.06.11.19,0,.19a1.16,1.16,0,0,1-.32,0C26,32.77,26.08,32.81,26.12,32.73Zm-.15.35h.44c0,.06,0,.12,0,.17s0-.11,0-.16h.32l0,.18h-.06s0,0-.05,0-.23,0-.39,0h0c-.09,0-.24,0-.28-.06h0v0s0,0-.05,0Zm-.47-.43a2.51,2.51,0,0,1,.31,0s0,.06,0,0-.08,0-.12,0,0,.06,0,.1.07,0,.1,0,.06,0,.09,0,0,0,0,.07a2.22,2.22,0,0,1-.37,0Zm-.05.42h.41c0,.06,0,.09,0,.13s-.13,0-.18,0-.1,0-.14,0v0s0,0,0,0-.06,0-.07,0A.08.08,0,0,1,25.45,33.07Zm-.54-.4a1.16,1.16,0,0,0,.33,0v.17c-.09,0-.21,0-.32,0Zm-.23-.15s0,0-.07,0A.1.1,0,0,1,24.68,32.52Zm0,.55,0,0s0,0,0,0S24.66,33,24.64,33.07Zm0-.3s-.19,0-.11-.06.07,0,.11,0A0,0,0,0,1,24.68,32.77Zm.23.28.25,0a.09.09,0,0,0,0,.08h0l-.16,0h0s-.09,0-.1,0h0S24.92,33.08,24.91,33.05Zm1,.42s-.12,0-.16,0h0a3.55,3.55,0,0,1-.8-.16v0a3,3,0,0,1,.32.07,3.81,3.81,0,0,1,.66.05Zm.93.09v0s-.07,0-.11,0c-.3,0-.52,0-.78-.07v-.08c.09,0,.17,0,.26,0s.14,0,.2,0,0,0,0,0v0a1.49,1.49,0,0,1,.42,0C26.83,33.45,26.87,33.53,26.82,33.56Zm.08,0c0-.07,0-.18.1-.16s.26,0,.15-.12l0,0-.19,0v-.18a2.49,2.49,0,0,1,.54,0c0,.16,0,.36.07.52A4.73,4.73,0,0,1,26.9,33.55Zm4.65.05-.34,0c.08-.11-.11-.19,0-.29s0-.07,0-.08-.11.1-.14.15a.33.33,0,0,1,0,.22h0a2.16,2.16,0,0,0-.3,0c-.22,0-.4,0-.62,0l0,0c-.77,0-1.7,0-2.47-.06,0-.17.05-.36.07-.55h.19v0c.06,0,.12,0,.17,0s.08,0,.12,0,0,.26.07.38,0,0,0-.06l0-.32s.12.08.16,0h0s.1,0,.11-.06-.18,0-.29,0l0-.23s.11,0,.13,0,0,0,0,0,.05,0,.07,0h.16c0,.21.1.45.15.67.06-.07,0-.18,0-.27a2.07,2.07,0,0,0,0-.43s0,0,.06,0,0,0,0,0,0,.07.05.1.05-.07.07-.12h0s.1,0,.12-.07a.1.1,0,0,0-.08,0c0-.14,0-.26,0-.39l0,0s.05,0,.09,0,0,0,.05,0l.07,0c.05.44.09.92.15,1.34h0l.19-1.34c.15,0,.3,0,.45,0l0,.41a.31.31,0,0,1-.21,0h0s-.08,0-.05.08.17,0,.27.06c0,.24,0,.42,0,.65h0c.07-.21.09-.44.15-.64,0,0,.11,0,.11-.05h.29c0,.23,0,.49.08.73a.92.92,0,0,0,.09-.37c0-.11,0-.24.06-.36h.21c0,.05,0,.08,0,.12s.06-.15.14-.12l.09.81S31.55,33.58,31.55,33.6Zm.05,0a3.19,3.19,0,0,1,0-.54c.06,0,.13,0,.19,0s0,0,0,0,.1,0,.15,0h.14c0,.16,0,.3.07.47C32,33.59,31.81,33.59,31.6,33.61Zm1.54-.12c-.27,0-.57,0-.86.08,0,0,0-.06,0-.08a1.31,1.31,0,0,1,.06-.41h.3c0,.08,0,.15,0,.2s.1,0,.12.06a3.34,3.34,0,0,1,.44,0S33.24,33.48,33.14,33.49Zm1-.14-.89.13s0-.1,0-.15l.52-.06h0c.09-.06.19,0,.29,0l.15,0C34.22,33.33,34.13,33.31,34.12,33.35Zm.08-.24s-.07,0-.12,0H34v0a.63.63,0,0,1,.24,0S34.19,33.1,34.2,33.11Zm.23-.63c.14,0,.18.13.27.23a1.31,1.31,0,0,1-.28,0Zm.25.59s0,0,0,0a.74.74,0,0,0-.18,0h-.06V33c.1,0,.18,0,.29,0S34.7,33.05,34.68,33.07Z"/><path class="cls-1" d="M33.6,31.34s-.07,0-.08,0c-.77-.11-1.45-.17-2.27-.21-.66,0-1.43-.07-2.1-.05h0c-.52,0-1.23.05-1.79.07-.37,0-.72.07-1.09.1a17.83,17.83,0,0,0-2.17.37,5.62,5.62,0,0,0-1.66.62c.05.09-.08.08-.11.12l0,0c-.07.06-.11.14-.2.18a1.15,1.15,0,0,0,.18,0s0,.08,0,.1l-.18,0c0,.06-.08,0-.09,0s-.06,0-.1.06-.05.14,0,.21a.92.92,0,0,1,.25.15s.1.11,0,.14a.19.19,0,0,1,.07.14,2.68,2.68,0,0,1,.42.31,5.93,5.93,0,0,0,1.07.38,7.81,7.81,0,0,0,1,.25c.51,0,1,.2,1.56.22h0l.26,0c.62.05,1.19.11,1.84.11l0,0c.44,0,.79,0,1.2,0,.21,0,.53,0,.82,0,.45,0,1,0,1.42-.06s1.18-.12,1.74-.21c.26,0,.52-.08.77-.12a6.17,6.17,0,0,0,.77-.17,5,5,0,0,0,1.73-.69v0s0,0-.06,0v0h0a.06.06,0,0,1-.07-.07c0-.07.14-.07.17-.07a.27.27,0,0,0,.2,0s.07-.06.07-.11,0,0,0,0,.05-.09,0-.1a.4.4,0,0,1,0-.15h0c0-.06,0,0-.07-.08a.07.07,0,0,1,.06-.07s0-.07-.06,0-.1-.08-.16-.1-.13-.08-.18-.11,0,0,0-.08,0,0,0,0-.09,0-.15-.05-.07,0-.05-.08.08,0,.13,0h0l.07,0-.09-.08A10.32,10.32,0,0,0,33.6,31.34Zm-8.92,1.18s0,0-.07,0A.1.1,0,0,1,24.68,32.52Zm0,.55,0,0s0,0,0,0S24.66,33,24.64,33.07Zm0-.3s-.19,0-.11-.06.07,0,.11,0A0,0,0,0,1,24.68,32.77Zm9.19-.12c.1,0,.21,0,.32,0s0,.07,0,.11l-.31,0A.11.11,0,0,1,33.87,32.65Zm.26.16-.18,0,.1,0Zm-.78-.15a1.31,1.31,0,0,0,.28,0,.22.22,0,0,1,0,.11c-.07,0-.14,0-.18,0s-.1,0-.15,0S33.28,32.66,33.35,32.66Zm.3.19a.5.5,0,0,1-.19,0c0-.05.06,0,.08,0S33.61,32.83,33.65,32.85Zm-.36,0c.06,0,.11,0,.16,0s-.07,0-.1,0h-.06Zm0,.22c.13,0,.29,0,.42,0v.08c-.1,0-.18,0-.28,0h-.14A.11.11,0,0,1,33.27,33.09Zm-.4-.72s0,0,0,0Zm-.1.32a1.93,1.93,0,0,0,.34,0s0,0,0,.07a.08.08,0,0,0,0,.13h0v0l-.4,0Zm-.06.4h.44v.09l-.29,0h0s0,0-.06.06l-.12,0Zm-.32-.7v0s.1,0,.14,0H32.4v0h0Zm0,.31h.26V33c-.05,0-.13,0-.19,0s-.08,0-.11,0A2.23,2.23,0,0,0,32.36,32.7Zm-.43-.34h0a.14.14,0,0,1,.17,0v.11c-.05,0-.1,0-.17,0S31.94,32.43,31.93,32.36Zm-.21,0s0,0,0,0h.06s0,.06,0,.09a.55.55,0,0,1-.1.11C31.72,32.47,31.69,32.38,31.72,32.31Zm0,.41c.05,0,.17,0,.16.05a0,0,0,0,0,.07,0c0-.12.13,0,.19-.07s0,.19.06.28c-.16,0-.36,0-.51,0Zm-.3-.5a2.09,2.09,0,0,1,0,.34h-.06A1,1,0,0,1,31.38,32.22Zm-.21,0s0,0,.06,0,0,.13,0,.17,0,.14,0,.21H31.1C31.13,32.45,31.15,32.33,31.17,32.2Zm-.61,0c.05,0,.08-.08.12,0s.09,0,.12,0,0,.27,0,.4a2.13,2.13,0,0,1-.37,0C30.5,32.49,30.54,32.34,30.56,32.21Zm-.69-.1-.07,0v0Zm-.5,0h0Zm-.46.12H29c.05.14,0,.28,0,.4h-.09A2.67,2.67,0,0,1,28.91,32.23Zm-.58,0h.22l0,0,.08.37h-.37Zm-.43,0s0,0,.06,0l.07.35h-.16A2,2,0,0,0,27.9,32.25Zm0,.48c.07,0,.23,0,.19.09a.34.34,0,0,0,0,.14s-.1,0-.12,0a.14.14,0,0,0-.09,0s0,0,0,0v-.06h0C27.88,32.84,27.85,32.79,27.88,32.73Zm-.14-.51c.08.07,0,.2,0,.29v.05H27.7C27.71,32.44,27.73,32.33,27.74,32.22Zm-.07.51h.08a.67.67,0,0,0,0,.2s-.05,0-.1,0Zm-.27-.45c0,.08,0,.16,0,.24H27.3C27.34,32.43,27.24,32.25,27.4,32.28Zm-.18.43c.09,0,.28-.08.24.1v.12c-.06,0-.12,0-.17,0s-.05,0-.08,0A1.62,1.62,0,0,1,27.22,32.71Zm-.14-.38s.07,0,0,.06h0s0,.05,0,.08H27C27,32.42,27,32.34,27.08,32.33Zm-.08.38h.13a1.62,1.62,0,0,0,0,.22.37.37,0,0,1-.15,0Zm-.26-.3c0,.05-.1,0-.11,0S26.73,32.36,26.74,32.41Zm-.22.29h.12s.07,0,.11,0l0,.23c-.09-.06-.17,0-.29,0S26.47,32.73,26.52,32.7Zm-.4,0s-.07,0-.1,0h0s0-.06,0-.07a1.16,1.16,0,0,0,.32,0c0,.06.11.19,0,.19a1.16,1.16,0,0,1-.32,0C26,32.77,26.08,32.81,26.12,32.73Zm-.15.35h.44c0,.06,0,.12,0,.17s0-.11,0-.16h.32l0,.18h-.06s0,0-.05,0-.23,0-.39,0h0c-.09,0-.24,0-.28-.06h0v0s0,0-.05,0Zm-.47-.43a2.51,2.51,0,0,1,.31,0s0,.06,0,0-.08,0-.12,0,0,.06,0,.1.07,0,.1,0,.06,0,.09,0,0,0,0,.07a2.22,2.22,0,0,1-.37,0Zm-.05.42h.41c0,.06,0,.09,0,.13s-.13,0-.18,0-.1,0-.14,0v0s0,0,0,0-.06,0-.07,0A.08.08,0,0,1,25.45,33.07Zm-.54-.4a1.16,1.16,0,0,0,.33,0v.17c-.09,0-.21,0-.32,0Zm0,.38.25,0a.09.09,0,0,0,0,.08h0l-.16,0h0s-.09,0-.1,0h0S24.92,33.08,24.91,33.05Zm1,.42s-.12,0-.16,0h0a3.55,3.55,0,0,1-.8-.16v0a3,3,0,0,1,.32.07,3.81,3.81,0,0,1,.66.05Zm.93.09v0s-.07,0-.11,0c-.3,0-.52,0-.78-.07v-.08c.09,0,.17,0,.26,0s.14,0,.2,0,0,0,0,0v0a1.49,1.49,0,0,1,.42,0C26.83,33.45,26.87,33.53,26.82,33.56Zm.08,0c0-.07,0-.18.1-.16s.26,0,.15-.12l0,0-.19,0v-.18a2.49,2.49,0,0,1,.54,0c0,.16,0,.36.07.52A4.73,4.73,0,0,1,26.9,33.55Zm4.65.05-.34,0c.08-.11-.11-.19,0-.29s0-.07,0-.08-.11.1-.14.15a.33.33,0,0,1,0,.22h0a2.16,2.16,0,0,0-.3,0c-.22,0-.4,0-.62,0l0,0c-.77,0-1.7,0-2.47-.06,0-.17.05-.36.07-.55h.19v0c.06,0,.12,0,.17,0s.08,0,.12,0,0,.26.07.38,0,0,0-.06l0-.32s.12.08.16,0h0s.1,0,.11-.06-.18,0-.29,0l0-.23s.11,0,.13,0,0,0,0,0,.05,0,.07,0h.16c0,.21.1.45.15.67.06-.07,0-.18,0-.27a2.07,2.07,0,0,0,0-.43s0,0,.06,0,0,0,0,0,0,.07.05.1.05-.07.07-.12h0s.1,0,.12-.07a.1.1,0,0,0-.08,0c0-.14,0-.26,0-.39l0,0s.05,0,.09,0,0,0,.05,0l.07,0c.05.44.09.92.15,1.34h0l.19-1.34c.15,0,.3,0,.45,0l0,.41a.31.31,0,0,1-.21,0h0s-.08,0-.05.08.17,0,.27.06c0,.24,0,.42,0,.65h0c.07-.21.09-.44.15-.64,0,0,.11,0,.11-.05h.29c0,.23,0,.49.08.73a.92.92,0,0,0,.09-.37c0-.11,0-.24.06-.36h.21c0,.05,0,.08,0,.12s.06-.15.14-.12l.09.81S31.55,33.58,31.55,33.6Zm.05,0a3.19,3.19,0,0,1,0-.54c.06,0,.13,0,.19,0s0,0,0,0,.1,0,.15,0h.14c0,.16,0,.3.07.47C32,33.59,31.81,33.59,31.6,33.61Zm1.54-.12c-.27,0-.57,0-.86.08,0,0,0-.06,0-.08a1.31,1.31,0,0,1,.06-.41h.3c0,.08,0,.15,0,.2s.1,0,.12.06a3.34,3.34,0,0,1,.44,0S33.24,33.48,33.14,33.49Zm1-.14-.89.13s0-.1,0-.15l.52-.06h0c.09-.06.19,0,.29,0l.15,0C34.22,33.33,34.13,33.31,34.12,33.35Zm.08-.24s-.07,0-.12,0H34v0a.63.63,0,0,1,.24,0S34.19,33.1,34.2,33.11Zm.23-.63c.14,0,.18.13.27.23a1.31,1.31,0,0,1-.28,0Zm.25.59s0,0,0,0a.74.74,0,0,0-.18,0h-.06V33c.1,0,.18,0,.29,0S34.7,33.05,34.68,33.07Z"/><path class="cls-1" d="M22.54,29.75c0,.18.1.35.14.53h.38c-.06.19-.14.38-.21.56l.17.6,0,0c.07,0,.09.06.16.07a1.46,1.46,0,0,1,.07-.19h0s0-.09,0-.12h0a.07.07,0,0,1,0-.1s0,0,.05,0l.15.38a12.8,12.8,0,0,1,2.63-.55c.23,0,.52,0,.77-.08s0-.18.17-.19,0,.11,0,.17.18,0,.26,0c.27,0,.51,0,.76-.06a2.74,2.74,0,0,0,.57,0c.34,0,.71,0,1,0,0,0,0,0,.05,0,.61,0,1.21,0,1.78.05.07,0,.17,0,.22,0a1.48,1.48,0,0,1,.37,0c.07,0,.19,0,.28,0s.39,0,.57,0c.33,0,.71.14,1,.16,0,0,.06,0,.08,0,.39.09.82.17,1.21.29.12,0,.24.09.35.08l0,0s0-.06,0-.08v0l0,0,0-.09s0,0,0,0a.29.29,0,0,0,.08-.26A.33.33,0,0,1,36,31c0,.08,0,.17-.05.24h0s0,.06,0,.1a.19.19,0,0,1-.08.17s0,0,0,0l.28.1c.06-.24.14-.48.2-.72L36,30.3a2.38,2.38,0,0,1,.38,0c.05-.23.15-.48.19-.73a.82.82,0,0,1-.25-.06c-.28.59-.53,1.21-.82,1.79h0c.2-.63.34-1.26.55-1.86-.11,0-.22-.06-.33-.09s0,0,0,0a1.12,1.12,0,0,1-.1.27c0,.09,0,.21-.13.24s.05-.17,0-.27a.68.68,0,0,1,.08-.31h0l-.65,1.65s0,0,0,0c.16-.56.3-1.1.45-1.68l-.18,0c-.16,0-.39-.08-.56-.13s0,.17-.12.23-.06,0-.07,0,0,0,0,0a1.31,1.31,0,0,1,.08-.21l-.16,0s-.09,0-.13,0c-.69-.14-1.35-.32-2.06-.4l-.09.3s0,.08,0,.12,0,.06,0,.08,0,.09,0,.14,0,.18-.08.22-.06,0-.07,0l0-.2c0-.05,0-.07,0-.13s0-.09,0-.14.07-.26,0-.39c-.27-.05-.56-.08-.82-.12s-.34,0-.51,0h0a19.82,19.82,0,0,0-2,0s0,.06,0,.08l0,.4s-.05,0-.08,0a.12.12,0,0,1,0-.1s0-.06,0-.09,0-.13,0-.17,0-.11,0-.14a5.35,5.35,0,0,0-.7.07.58.58,0,0,0-.19,0,.72.72,0,0,0-.22,0c-.24,0-.44.05-.68.1l-.24,0c-.87.17-1.75.35-2.59.56.13.53.27,1.09.41,1.61,0,0,0,.09,0,.09-.19-.44-.34-.84-.51-1.27.06.17.06.32.11.49s0,.07,0,.1-.08,0-.11,0-.08-.2-.11-.31a2.77,2.77,0,0,0-.14-.38s0,0-.06,0-.1,0-.11,0l0,0s0,.06,0,.07.09.25.11.35a.05.05,0,0,1-.09,0c0-.13-.1-.27-.12-.4s-.06,0,0-.06h0l0-.1,0,0,.5,1.7c0,.05.06.1,0,.14-.25-.52-.48-1-.72-1.57l0,.08s0,0-.06.06,0-.07-.09-.08,0-.07,0-.1-.09,0-.07,0A.09.09,0,0,1,22.54,29.75Z"/><path class="cls-1" d="M36.33,31.09l-.25.53a.65.65,0,0,1,.22.11c.09,0,.11-.13.15-.18s0,0,0-.06S36.36,31.2,36.33,31.09Z"/><polygon class="cls-1" points="35.66 31.45 35.65 31.45 35.65 31.45 35.66 31.45"/><path class="cls-1" d="M21.53,27.2a1.53,1.53,0,0,0,.81-.22.63.63,0,0,0,.22-.52c0-.1-.15-.12-.21-.19a.45.45,0,0,1-.06-.36.4.4,0,0,1,.32-.25.42.42,0,0,1,.4.22.39.39,0,0,1-.06.39c0,.13.12.17.19.26a1.09,1.09,0,0,0,1.16.19.76.76,0,0,0,.34-.61h0s-.05,0-.05.06,0,0-.08,0h0l0,0a0,0,0,0,0,0,0c-.11,0-.16,0-.24-.05a.38.38,0,0,1-.37-.06c-.08-.23.21-.31.33-.42l0-.05a.66.66,0,0,0,.16-.17,1.21,1.21,0,0,1-.07-.33c-.13.12-.25.28-.4.42-.06,0-.13,0-.2,0s0-.05,0-.05a9.47,9.47,0,0,0-1-.22,6,6,0,0,0-.65-.15h0a1.46,1.46,0,0,1-.2,0,9,9,0,0,1-.55-1.74c-.05-.19,0-.46-.08-.63,0,0,0,0-.09,0l0,0c0-.06-.08,0-.12-.07H21a3.37,3.37,0,0,0-.5.42,1.79,1.79,0,0,0-.53.95,1.51,1.51,0,0,0,.85,1.46v0c-.22.22-.43.45-.66.64a1.56,1.56,0,0,1,.45.44,1.55,1.55,0,0,1,.57-.3c.11,0,.27-.05.32.08s-.07.24-.11.33-.16.1-.12.18S21.12,27,21,27a.5.5,0,0,0,.32.15C21.41,27.2,21.47,27.15,21.53,27.2Z"/><path class="cls-1" d="M22.17,29.83l-.05,0s0,0,0,0-.1,0-.12.1v0h0S22,30,22,30s0,.07-.07.06-.1-.25-.26-.25c.07.14.16.29.23.44.16,0,.31,0,.47,0Z"/><path class="cls-1" d="M38.32,25.43v0a1.73,1.73,0,0,0,.89-1.27,2.34,2.34,0,0,0-1.16-1.65.25.25,0,0,0-.2.14A6.85,6.85,0,0,1,37.24,25l0,0c-.47.09-1,.23-1.46.34v0c-.18.06-.37.09-.56.14-.14-.13-.25-.3-.39-.41a2,2,0,0,1-.1.44c.23.12.46.19.58.44,0,0,0,.08,0,.11a.51.51,0,0,1-.33,0l-.22,0s-.07,0-.07,0-.09,0-.14,0v.08a.72.72,0,0,0,.47.55,1.13,1.13,0,0,0,1.11-.36c.09,0,0-.12.09-.16a.44.44,0,0,1-.08-.21.41.41,0,0,1,.22-.38.46.46,0,0,1,.4.07.37.37,0,0,1,.13.34c0,.18-.17.26-.26.36a.55.55,0,0,0,.07.38c.19.34.6.34.95.37.05,0,.1,0,.14,0a.46.46,0,0,0,.32-.11.45.45,0,0,0,0-.23.75.75,0,0,1-.39-.52c0-.07.07-.1.13-.12a1.29,1.29,0,0,1,.78.31,1.44,1.44,0,0,1,.43-.42C38.78,25.88,38.52,25.67,38.32,25.43Z"/><path class="cls-1" d="M23,31.59h0l-.23-.51-.07.17c.07.06,0,.14.06.22s.05.14.12.17a.1.1,0,0,1,0-.08S23,31.55,23,31.59Z"/><path class="cls-1" d="M37.72,27.63a1.83,1.83,0,0,1-.34,0,1.25,1.25,0,0,1-1.19-.75,2.08,2.08,0,0,1-.53.23,1.71,1.71,0,0,1-.78,0,1.22,1.22,0,0,1-.83-.83,1.66,1.66,0,0,1-.84.33,1.35,1.35,0,0,1-1.33-.7,1.52,1.52,0,0,1-.8.51A1.41,1.41,0,0,1,29.56,26a1.39,1.39,0,0,1-1.24.53.5.5,0,0,0-.17,0,2.47,2.47,0,0,1-.5-.19,4.06,4.06,0,0,1-.43-.35,1.22,1.22,0,0,1-.66.6,1.62,1.62,0,0,1-1.51-.23,1,1,0,0,1-.37.58,1.53,1.53,0,0,1-1.53.15c-.09,0-.13-.12-.24-.12a1.22,1.22,0,0,1-.94.73c-.07,0-.13,0-.16.07-.19-.05-.23.08-.37.15.07.11.11.27.21.34a.35.35,0,0,0,.06.14l0,0s0,0,.05.06.07,0,.1,0a18.53,18.53,0,0,1,3.25-.7,2.17,2.17,0,0,0,.25,0c.77-.08,1.48-.17,2.27-.24h0l1.36-.1h0c.13,0,.31,0,.46,0s.29,0,.41,0l0,0s0,0,0,0a.67.67,0,0,1,.31,0h.4s0,0,0,0,0,0,0,0v0s.08,0,.15,0,0,0,.05,0,.11.07.14,0,.09,0,.13,0a.39.39,0,0,0,.15,0h0s0,0,.06,0a2.16,2.16,0,0,0,.38.06v0h0s0,0,.07,0v0s0,0,0,0h0s0,0,0,0l0,0c.05,0,.11,0,.13,0l0,0c.07,0,.14,0,.21,0s.05,0,.09,0v0s.09,0,.12,0h0c.14,0,.25,0,.39,0h.21c.1,0,.18,0,.27,0h.18l0,0a2.43,2.43,0,0,1,.55.09s.06,0,.07,0c.11.14.25,0,.39.11s0,0,0,0a16.85,16.85,0,0,1,2.07.44c.18,0,.35.2.54.06a.64.64,0,0,0,.19-.13,2.59,2.59,0,0,0,.28-.55h0v0S37.73,27.6,37.72,27.63Z"/><path class="cls-1" d="M37,29.69c-.1.19-.18.4-.28.6H37a1.32,1.32,0,0,1,.07-.3c.06-.07,0-.17.09-.24A.76.76,0,0,1,37,29.69Z"/><path class="cls-1" d="M37.39,29c0-.06,0,0,.07-.06a8.54,8.54,0,0,0-1.35-.52c-.54-.16-1.11-.29-1.65-.42-.37,0-.71-.15-1.09-.17a9.67,9.67,0,0,0-1.08-.15c-.15-.07-.29,0-.44-.07-.64-.07-1.33-.12-2-.17l0,0c-.05,0-.09,0-.14,0s-.08,0-.12,0-.05,0-.06,0a0,0,0,0,0,0,0s-.06,0-.1,0l0,0a2.6,2.6,0,0,0-.26,0,14.53,14.53,0,0,0-1.6.12s-.07,0-.11,0c-.81,0-1.56.22-2.35.31v0a14.78,14.78,0,0,0-2.92.77c-.23.13-.52.2-.74.35,0,0,0,.11-.07.12s0,0,0,0,0,.05,0,.07h0a1.76,1.76,0,0,0,.71-.17c.67-.23,1.41-.41,2.12-.61.53-.1,1.07-.25,1.61-.33l.78-.15a.85.85,0,0,0,.22,0c.21,0,.46-.07.67-.08a7.14,7.14,0,0,1,.93-.07,4.33,4.33,0,0,1,.72,0l.07,0c.19,0,.44,0,.67,0,.07,0,.12-.06.17,0h0a13.08,13.08,0,0,1,2.21.19h0s0,0,0,0a3.7,3.7,0,0,1,.51.07h0a.23.23,0,0,1,.12,0c.29,0,.57.11.88.18h0c.42.1.9.19,1.31.3a.47.47,0,0,0,.16,0c.13.05.27.07.4.12l.2,0c.41.13.83.24,1.22.38a.76.76,0,0,0,.34.11.23.23,0,0,1,.23-.05C37.69,29.12,37.51,29.11,37.39,29Z"/><path class="cls-1" d="M37.25,29.77v0a1.42,1.42,0,0,0-.19.48h.08a4.59,4.59,0,0,0,.26-.49S37.29,29.81,37.25,29.77Z"/><path class="cls-1" d="M25.51,33.18s0,0,0,0v0s.1.06.14,0,.12.06.18,0,0-.07,0-.13h-.41a.08.08,0,0,0,0,.1S25.49,33.18,25.51,33.18Z"/><path class="cls-1" d="M26.31,32.88c.14,0,0-.13,0-.19a1.16,1.16,0,0,1-.32,0s0,.07,0,.07h0s.08,0,.1,0-.17,0-.13.16A1.16,1.16,0,0,0,26.31,32.88Z"/><path class="cls-1" d="M26.78,32.92l0-.23s-.07,0-.11,0h-.12c-.05,0,0,.11,0,.18S26.69,32.86,26.78,32.92Z"/><path class="cls-1" d="M27.12,32.93a1.62,1.62,0,0,1,0-.22H27l0,.21A.37.37,0,0,0,27.12,32.93Z"/><path class="cls-1" d="M26.74,32.41s-.08,0-.11,0S26.71,32.46,26.74,32.41Z"/><path class="cls-1" d="M26,33.21v0h0c0,.08.19.06.28.06h0c.16,0,.26,0,.39,0s0,0,.05,0h.06l0-.18h-.32s0,.13,0,.16,0-.11,0-.17H26v.16S26,33.22,26,33.21Z"/><path class="cls-1" d="M25.83,32.81s-.11,0-.09,0-.07,0-.1,0,0-.08,0-.1.08,0,.12,0,0,0,0,0a2.51,2.51,0,0,0-.31,0l0,.2a2.22,2.22,0,0,0,.37,0S25.79,32.85,25.83,32.81Z"/><path class="cls-1" d="M27.22,32.93s.05,0,.08,0,.11,0,.17,0v-.12c0-.18-.15-.07-.24-.1A1.62,1.62,0,0,0,27.22,32.93Z"/><path class="cls-1" d="M27.75,32.93a.67.67,0,0,1,0-.2h-.08l0,.21C27.7,33,27.72,32.89,27.75,32.93Z"/><path class="cls-1" d="M27.75,32.51c0-.09.07-.22,0-.29,0,.11,0,.22,0,.33h.05Z"/><path class="cls-1" d="M27.11,32.4h0c0-.06,0,0,0-.06s0,.09-.06.15h.11S27.14,32.41,27.11,32.4Z"/><path class="cls-1" d="M27.84,32.94s0,0,0,0a.14.14,0,0,1,.09,0c0,.06.08,0,.12,0a.34.34,0,0,1,0-.14c0-.14-.12-.08-.19-.09s0,.11-.05.15h0Z"/><path class="cls-1" d="M25.23,32.81v-.17a1.16,1.16,0,0,1-.33,0v.12C25,32.79,25.14,32.85,25.23,32.81Z"/><path class="cls-1" d="M27.42,32.52c0-.08,0-.16,0-.24s-.06.15-.1.23Z"/><path class="cls-1" d="M24.68,32.52a.1.1,0,0,0-.07,0S24.68,32.54,24.68,32.52Z"/><path class="cls-1" d="M34.19,33.07a.63.63,0,0,0-.24,0v0h.13c.05,0,.08,0,.12,0S34.23,33.08,34.19,33.07Z"/><path class="cls-1" d="M34.7,32.71c-.09-.1-.13-.23-.27-.23v.24A1.31,1.31,0,0,0,34.7,32.71Z"/><path class="cls-1" d="M34.05,33.25c-.1,0-.2,0-.29,0h0l-.52.06c0,.05,0,.1,0,.15l.89-.13s.1,0,.08-.08Z"/><path class="cls-1" d="M32.73,33.35s-.08,0-.12-.06,0-.12,0-.2h-.3a1.31,1.31,0,0,0-.06.41s0,.06,0,.08c.29,0,.59,0,.86-.08.1,0,0-.1,0-.15A3.34,3.34,0,0,0,32.73,33.35Z"/><path class="cls-1" d="M34.45,33v.08h.06a.74.74,0,0,1,.18,0s0,0,0,0,.07,0,.06-.07S34.55,33,34.45,33Z"/><path class="cls-1" d="M42.06,23.82l0,0-.31.2v0a3.4,3.4,0,0,1,0,1.19,1.54,1.54,0,0,1-1.16,1.25c-.27.08-.46-.08-.64-.25s-.54-.48-.79-.72c.21-.17.34-.39.53-.56s.16-.44.16-.69A2.4,2.4,0,0,0,38,22.14c-.06,0-.1-.1-.15-.08s-.06,0-.08,0-.08-.38-.14-.57a1.94,1.94,0,0,0-.83-1c.11.33.36.62.48.94a4.09,4.09,0,0,1-.61,3.4L35.3,25c-.22-.26-.41-.55-.61-.8.17-.49.37-1,.51-1.51a2.21,2.21,0,0,0-.37-1.77,2,2,0,0,0-1.13-1.06,3.76,3.76,0,0,0-.74-.24l-.22,0s-.06,0-.06,0l-.25,0a4.22,4.22,0,0,0-1,0,1.54,1.54,0,0,0-.25-.36,1.36,1.36,0,0,0-.11-.25H31a.11.11,0,0,0-.09-.05s0,.09,0,.11,0,.08.07.08a6.53,6.53,0,0,1,.42,1.86c0,.49.05,1.08,0,1.55A6.68,6.68,0,0,1,31,24.28c-.06,0-.05.07-.08.08s-.08.12-.11.16,0,.06,0,.08,0,.07.05,0,.09-.11.16-.12,0-.06,0-.09a1.55,1.55,0,0,0,.53-.85,6.54,6.54,0,0,0,0-3.59l0,0c.18.05.32,0,.5.05s.06,0,.08,0a3.22,3.22,0,0,1,2.49,1.57,2.43,2.43,0,0,1-.5,2.38,1,1,0,0,0-.17.23c.16.21.36.42.55.63a1.34,1.34,0,0,0-.37.53,2.13,2.13,0,0,0-.27-.07c-.1,0-.19-.05-.29,0s-.19,0-.2.13c.06.26.38.26.43.52l-.16.15a.8.8,0,0,1-.4.11c-.07,0-.18,0-.25,0a.52.52,0,0,1-.22,0c-.12,0-.19-.06-.3-.08a.64.64,0,0,1-.31-.48c.09,0,.15-.1.23-.15a.57.57,0,0,0,.08-.27.48.48,0,0,0-.17-.36.45.45,0,0,0-.73.35c0,.12.07.2.1.3s-.26.26-.37.4-.17.16-.3.15a1.71,1.71,0,0,1-.78,0,.45.45,0,0,0-.14-.06.61.61,0,0,1-.33-.51c.07,0,.13-.1.21-.13s.3,0,.41-.13a.15.15,0,0,0,.07-.17c-.16-.22-.47-.17-.7-.21a1.12,1.12,0,0,0-.18-.68.14.14,0,0,0-.17,0,1.12,1.12,0,0,0-.15.51c0,.05,0,.12,0,.18a2.38,2.38,0,0,0-.46,0c-.07.07-.27.07-.24.22s.3.2.47.22a.19.19,0,0,0,.12,0c0,.05.07,0,.06.07s0,0,.05,0a.64.64,0,0,1-.15.37A1.32,1.32,0,0,1,28,26a1.69,1.69,0,0,1-.61-.54s0-.09,0-.12a.46.46,0,0,0-.05-.49.51.51,0,0,0-.43-.15.52.52,0,0,0-.37.36.51.51,0,0,0,.19.46c.06,0,.09,0,.14.06a.62.62,0,0,1-.12.3c-.06.09-.15.12-.22.18a1.07,1.07,0,0,1-.52.1l0,0v0a.87.87,0,0,1-.61-.09,1.36,1.36,0,0,1-.17-.17c.05,0,.07-.12.13-.14s.32-.2.3-.39-.16-.1-.25-.1h0l-.28,0c-.08,0-.16.07-.24.05a1,1,0,0,0-.35-.51c.18-.21.38-.43.55-.64a3.09,3.09,0,0,1-.83-2.05A2.53,2.53,0,0,1,26,20.26,4.61,4.61,0,0,1,27.48,20v0a6.78,6.78,0,0,0,0,3.55,1.59,1.59,0,0,0,.57.87c.07,0,0,.16.12.08s0-.09-.05-.11a5.39,5.39,0,0,1-.41-1.79c0-.33,0-.67,0-1a1.71,1.71,0,0,1,0-.32c0-.35.06-.65.08-1a4.61,4.61,0,0,1,.3-1.16h0c0-.11.15-.16.16-.28l0-.05c-.05,0-.08.06-.14.05S28,19,28,19.11a2.34,2.34,0,0,0-.29.41,4.82,4.82,0,0,0-1.33.08h0c-.17,0-.31.07-.45.09a4.26,4.26,0,0,0-1,.46,2.27,2.27,0,0,0-.58.69,3.21,3.21,0,0,0-.49,1.4,8.35,8.35,0,0,0,.59,1.94v.06c-.19.27-.4.49-.58.75-.18,0-.33-.06-.52-.06h0l-.88-.14v0h0l0,0a4.41,4.41,0,0,1-.76-2.83,4.55,4.55,0,0,1,.63-1.49h0a2.15,2.15,0,0,0-1,1.61.28.28,0,0,1-.18,0h0s0,0-.06,0l-.12.06s-.05,0,0,0a2.74,2.74,0,0,0-1.39,1.23,2.13,2.13,0,0,0-.16,1.34l.37.45a3.44,3.44,0,0,1,.27.27c-.14.16-.32.3-.48.45a2.47,2.47,0,0,1-.72.55,2.1,2.1,0,0,1-.92-.38,1.42,1.42,0,0,1-.44-.72,3.56,3.56,0,0,1,0-1.38l-.3-.21h0a6.84,6.84,0,0,0-.11,1.43c0,.35,0,.79.35,1,.06,0,.07.12.14.14a1.43,1.43,0,0,0,.23.2h0l.08.1s0,.09.09,0,.14.05.14.11.25.18.39.25.08,0,.09.07.07,0,.1.05.08,0,.11,0,.12-.06.2-.07a4.07,4.07,0,0,0,.76-.61s0,0,0,0h0c0,.05.11.09.08.15l0,0c0,.06,0,.1.1.14s.1.07.17.1.09.08.11.14,0,0,0,0a.91.91,0,0,1,.27.28c.12.06.15.19.23.28s.12.1.18.13a2.42,2.42,0,0,1,.29.42s0,.06,0,.07a.66.66,0,0,1,.12.45l-.13.11a.7.7,0,0,0-.21.72.4.4,0,0,0,.27.19c.07,0,.1.11.14.16h0s0,0,0,0h0s0,0,0,.05.11.08.13.14h0c.09,0,.05.13.15.12a1.05,1.05,0,0,1,.15.24,5.81,5.81,0,0,1,.45.69v.09s0,.06,0,.06a.54.54,0,0,1,.1.16s0,0,0,.06.05.09,0,.11h0c0,.06,0,.1,0,.12l0,0s0,.05,0,.06h0s0,0,0,0-.07.06-.08.12a1.23,1.23,0,0,0-.71.9c0,.41.3.64.58.84a7.84,7.84,0,0,0,2.61.94c.6.14,1.2.2,1.84.29v0l.52.07c1,.06,1.92.12,3,.09a.37.37,0,0,0,.15,0h.34l1-.06c.25,0,.45-.05.71-.06.08,0,.13,0,.2,0a1.58,1.58,0,0,0,.25-.05l.53-.06a12.75,12.75,0,0,0,3.2-.82c.43-.23.94-.45,1.09-1s-.45-.92-.84-1.13a2.86,2.86,0,0,1,.13-.58c0-.06,0-.06.07-.08h0c.08-.06.12-.16.22-.21s.06-.1.1-.11.06-.11.09-.19.11-.2.16-.31.1-.13.15-.19h0s0,0,0,0v0c.05-.05.09-.12.16-.13a0,0,0,0,0,0,0,.79.79,0,0,0,.08-.16s0,0,0,0l0,0s0,0,0,0h0v0h0a.83.83,0,0,0,.27-.12.37.37,0,0,0,.13-.31,1,1,0,0,0-.52-.72v0a7.44,7.44,0,0,1,.38-.68c0-.06.11-.09.11-.16s.25-.26.32-.41.05-.1.11-.1.08-.12.15-.15v0a1.64,1.64,0,0,0,.56-.61,5.92,5.92,0,0,0,.82.68c.48.06.79-.33,1.16-.55s.49-.33.65-.62A5,5,0,0,0,42.06,23.82ZM21.34,27.17A.5.5,0,0,1,21,27c.1-.06.12-.18.21-.22s.08-.12.12-.18.16-.2.11-.33-.21-.07-.32-.08a1.55,1.55,0,0,0-.57.3,1.56,1.56,0,0,0-.45-.44c.23-.19.44-.42.66-.64v0a1.51,1.51,0,0,1-.85-1.46,1.79,1.79,0,0,1,.53-.95,3.37,3.37,0,0,1,.5-.42h.11s.09,0,.12.07l0,0s.06.05.09,0c.05.17,0,.44.08.63A9,9,0,0,0,21.87,25a1.46,1.46,0,0,0,.2,0h0a6,6,0,0,1,.65.15,9.47,9.47,0,0,1,1,.22s0,0,0,.05.14,0,.2,0c.15-.14.27-.3.4-.42a1.21,1.21,0,0,0,.07.33.66.66,0,0,1-.16.17l0,.05c-.12.11-.41.19-.33.42a.38.38,0,0,0,.37.06c.08.07.13,0,.24.05a0,0,0,0,1,0,0l0,0h0s0,0,.08,0,0-.05.05-.06h0a.76.76,0,0,1-.34.61,1.09,1.09,0,0,1-1.16-.19c-.07-.09-.18-.13-.19-.26a.39.39,0,0,0,.06-.39.42.42,0,0,0-.4-.22.4.4,0,0,0-.32.25.45.45,0,0,0,.06.36c.06.07.16.09.21.19a.63.63,0,0,1-.22.52,1.53,1.53,0,0,1-.81.22C21.47,27.15,21.41,27.2,21.34,27.17Zm.58,3.1c-.07-.15-.16-.3-.23-.44.16,0,.19.13.26.25s0,0,.07-.06,0-.06,0-.09h0v0c0-.06.1,0,.12-.1s0,0,0,0l.05,0,.22.45C22.23,30.3,22.08,30.26,21.92,30.27Zm14.82,2-.07,0h0c-.05,0-.07,0-.13,0s0,.07.05.08.12,0,.15.05,0,0,0,0,0,0,0,.08.11.1.18.11.15,0,.16.1,0,0,.06,0a.07.07,0,0,0-.06.07s.08,0,.07.08h0a.4.4,0,0,0,0,.15c.06,0,0,.07,0,.1s0,0,0,0-.07.08-.07.11a.27.27,0,0,1-.2,0s-.14,0-.17.07a.06.06,0,0,0,.07.07h0v0s0,.06.06,0v0a5,5,0,0,1-1.73.69,6.17,6.17,0,0,1-.77.17c-.25,0-.51.09-.77.12-.56.09-1.19.16-1.74.21s-1,0-1.42.06c-.29,0-.61,0-.82,0-.41,0-.76,0-1.2,0l0,0c-.65,0-1.22-.06-1.84-.11l-.26,0h0c-.56,0-1.05-.17-1.56-.22a7.81,7.81,0,0,1-1-.25,5.93,5.93,0,0,1-1.07-.38,2.68,2.68,0,0,0-.42-.31.19.19,0,0,0-.07-.14c.08,0,0-.09,0-.14a.92.92,0,0,0-.25-.15c0-.07,0-.14,0-.21s.06,0,.1-.06.06,0,.09,0l.18,0s0-.09,0-.1a1.15,1.15,0,0,1-.18,0c.09,0,.13-.12.2-.18l0,0s.16,0,.11-.12a5.62,5.62,0,0,1,1.66-.62,17.83,17.83,0,0,1,2.17-.37c.37,0,.72-.09,1.09-.1.56,0,1.27-.08,1.79-.07h0c.67,0,1.44,0,2.1.05.82,0,1.5.1,2.27.21,0,0,.06,0,.08,0a10.32,10.32,0,0,1,3,.87ZM22.68,29.67s.05.06,0,.1,0,.07.09.08.06,0,.06-.06l0-.08c.24.53.47,1.05.72,1.57.05,0,0-.09,0-.14l-.5-1.7,0,0,0,.1h0s0,0,0,.06.12.27.12.4a.05.05,0,0,0,.09,0c0-.1-.08-.23-.11-.35s0,0,0-.07l0,0c0-.07.08.05.11,0s0,0,.06,0a2.77,2.77,0,0,1,.14.38c0,.11.09.2.11.31s.09.1.11,0,0-.07,0-.1-.05-.32-.11-.49c.17.43.32.83.51,1.27,0,0,0-.07,0-.09-.14-.52-.28-1.08-.41-1.61.84-.21,1.72-.39,2.59-.56l.24,0c.24-.05.44-.06.68-.1a.72.72,0,0,1,.22,0,.58.58,0,0,1,.19,0,5.35,5.35,0,0,1,.7-.07s0,.09,0,.14,0,.12,0,.17,0,.05,0,.09a.12.12,0,0,0,0,.1s.05,0,.08,0l0-.4s0-.08,0-.08a19.82,19.82,0,0,1,2,0h0c.17,0,.32,0,.51,0s.55.07.82.12c0,.13,0,.25,0,.39s0,.09,0,.14,0,.08,0,.13l0,.2s0,0,.07,0,.05-.17.08-.22,0-.08,0-.14S32,29,32,29s.05-.08,0-.12l.09-.3c.71.08,1.37.26,2.06.4,0,0,.08,0,.13,0l.16,0a1.31,1.31,0,0,0-.08.21s0,0,0,0,0,0,.07,0,.08-.14.12-.23.4.09.56.13l.18,0c-.15.58-.29,1.12-.45,1.68,0,0,0,0,0,0l.65-1.65h0a.68.68,0,0,0-.08.31c0,.1-.14.19,0,.27s.09-.15.13-.24a1.12,1.12,0,0,0,.1-.27s0,0,0,0,.22.05.33.09c-.21.6-.35,1.23-.55,1.86h0c.29-.58.54-1.2.82-1.79a.82.82,0,0,0,.25.06c0,.25-.14.5-.19.73a2.38,2.38,0,0,0-.38,0l.21.58c-.06.24-.14.48-.2.72l-.28-.1s0,0,0,0a.19.19,0,0,0,.08-.17s0-.07,0-.1h0c.06-.07,0-.16.05-.24a.33.33,0,0,0-.14,0,.29.29,0,0,1-.08.26s0,0,0,0l0,.09,0,0v0s0,0,0,.08l0,0h0c-.11,0-.23-.07-.35-.08-.39-.12-.82-.2-1.21-.29,0,0-.06,0-.08,0-.32,0-.7-.12-1-.16-.18,0-.4,0-.57,0s-.21,0-.28,0a1.48,1.48,0,0,0-.37,0c-.05,0-.15,0-.22,0-.57,0-1.17-.06-1.78-.05,0,0,0,0-.05,0-.32,0-.69,0-1,0a2.74,2.74,0,0,1-.57,0c-.25,0-.49.05-.76.06-.08,0-.17,0-.26,0s0-.13,0-.17,0,.22-.17.19-.54,0-.77.08a12.8,12.8,0,0,0-2.63.55l-.15-.38s0,0-.05,0a.07.07,0,0,0,0,.1h0s0,.09,0,.12h0a1.46,1.46,0,0,0-.07.19c-.07,0-.09-.08-.16-.07l0,0-.17-.6c.07-.18.15-.37.21-.56h-.38c0-.18-.1-.35-.14-.53a.09.09,0,0,0,.07,0S22.65,29.68,22.68,29.67Zm13.77,1.88c0,.05-.06.18-.15.18a.65.65,0,0,0-.22-.11l.25-.53c0,.11.16.26.09.4S36.43,31.55,36.45,31.55Zm-13.58.08c-.07,0,0-.18-.12-.17s0-.16-.06-.22l.07-.17.23.51h0s0,0-.07,0A.1.1,0,0,0,22.87,31.63ZM37,30.29h-.28c.1-.2.18-.41.28-.6a.76.76,0,0,0,.16.06c0,.07,0,.17-.09.24A1.32,1.32,0,0,0,37,30.29Zm.16,0h-.08a1.42,1.42,0,0,1,.19-.48v0s.12,0,.16,0A4.59,4.59,0,0,1,37.15,30.29Zm.37-1a.76.76,0,0,1-.34-.11c-.39-.14-.81-.25-1.22-.38l-.2,0c-.13-.05-.27-.07-.4-.12a.47.47,0,0,1-.16,0c-.41-.11-.89-.2-1.31-.3h0c-.31-.07-.59-.14-.88-.18a.23.23,0,0,0-.12,0h0a3.7,3.7,0,0,0-.51-.07s0,0,0,0h0a13.08,13.08,0,0,0-2.21-.19h0c-.05-.07-.1,0-.17,0-.23,0-.48,0-.67,0l-.07,0a4.33,4.33,0,0,0-.72,0,7.14,7.14,0,0,0-.93.07c-.21,0-.46.09-.67.08a.85.85,0,0,1-.22,0l-.78.15c-.54.08-1.08.23-1.61.33-.71.2-1.45.38-2.12.61a1.76,1.76,0,0,1-.71.17h0s0-.06,0-.07,0,0,0,0,0-.08.07-.12c.22-.15.51-.22.74-.35A14.78,14.78,0,0,1,25.13,28v0c.79-.09,1.54-.27,2.35-.31,0,0,.07,0,.11,0a14.53,14.53,0,0,1,1.6-.12,2.6,2.6,0,0,1,.26,0l0,0s.06,0,.1,0a0,0,0,0,1,0,0s0,0,.06,0,.09,0,.12,0,.09,0,.14,0l0,0c.65.05,1.34.1,2,.17.15.05.29,0,.44.07a9.67,9.67,0,0,1,1.08.15c.38,0,.72.14,1.09.17.54.13,1.11.26,1.65.42a8.54,8.54,0,0,1,1.35.52s-.1,0-.07.06.3.09.36.22A.23.23,0,0,0,37.52,29.3Zm.25-1.67a2.59,2.59,0,0,1-.28.55.64.64,0,0,1-.19.13c-.19.14-.36-.06-.54-.06a16.85,16.85,0,0,0-2.07-.44s0,0,0,0-.28,0-.39-.11c0,0-.07,0-.07,0a2.43,2.43,0,0,0-.55-.09l0,0h-.18c-.09,0-.17,0-.27,0H33c-.14,0-.25-.05-.39,0h0s-.09,0-.12,0v0s-.05,0-.09,0-.14-.05-.21,0l0,0c0,.06-.08,0-.13,0l0,0s0,0,0,0h0s0,0,0,0v0s-.07,0-.07,0h0v0a2.16,2.16,0,0,1-.38-.06s0,0-.06,0h0a.39.39,0,0,1-.15,0s-.1.05-.13,0-.1,0-.14,0,0,0-.05,0-.11,0-.15,0v0s0,0,0,0,0,0,0,0h-.4a.67.67,0,0,0-.31,0s0,0,0,0l0,0c-.12,0-.29,0-.41,0s-.33,0-.46,0h0l-1.36.1h0c-.79.07-1.5.16-2.27.24a2.17,2.17,0,0,1-.25,0,18.53,18.53,0,0,0-3.25.7s-.07,0-.1,0-.05,0-.05-.06l0,0a.35.35,0,0,1-.06-.14c-.1-.07-.14-.23-.21-.34.14-.07.18-.2.37-.15,0-.08.09-.07.16-.07a1.22,1.22,0,0,0,.94-.73c.11,0,.15.1.24.12a1.53,1.53,0,0,0,1.53-.15,1,1,0,0,0,.37-.58,1.62,1.62,0,0,0,1.51.23,1.22,1.22,0,0,0,.66-.6,4.06,4.06,0,0,0,.43.35,2.47,2.47,0,0,0,.5.19.5.5,0,0,1,.17,0A1.39,1.39,0,0,0,29.56,26a1.41,1.41,0,0,0,1.52.48,1.52,1.52,0,0,0,.8-.51,1.35,1.35,0,0,0,1.33.7,1.66,1.66,0,0,0,.84-.33,1.22,1.22,0,0,0,.83.83,1.71,1.71,0,0,0,.78,0,2.08,2.08,0,0,0,.53-.23,1.25,1.25,0,0,0,1.19.75,1.83,1.83,0,0,0,.34,0s0,0,.06,0v0Zm.77-1.12a1.29,1.29,0,0,0-.78-.31c-.06,0-.12.05-.13.12a.75.75,0,0,0,.39.52.45.45,0,0,1,0,.23.46.46,0,0,1-.32.11s-.09,0-.14,0c-.35,0-.76,0-.95-.37a.55.55,0,0,1-.07-.38c.09-.1.26-.18.26-.36a.37.37,0,0,0-.13-.34.46.46,0,0,0-.4-.07.41.41,0,0,0-.22.38.44.44,0,0,0,.08.21s0,.16-.09.16a1.13,1.13,0,0,1-1.11.36.72.72,0,0,1-.47-.55v-.08c.05,0,.1,0,.14,0s0,0,.07,0l.22,0a.51.51,0,0,0,.33,0c.05,0,0-.08,0-.11-.12-.25-.35-.32-.58-.44a2,2,0,0,0,.1-.44c.14.11.25.28.39.41.19-.05.38-.08.56-.14v0c.48-.11,1-.25,1.46-.34l0,0a6.85,6.85,0,0,0,.61-2.39.25.25,0,0,1,.2-.14,2.34,2.34,0,0,1,1.16,1.65,1.73,1.73,0,0,1-.89,1.27v0c.2.24.46.45.65.66A1.44,1.44,0,0,0,38.54,26.51Z"/><path class="cls-1" d="M31.54,33.54l-.09-.81c-.08,0-.1.08-.14.12s0-.07,0-.12h-.21c0,.12-.05.25-.06.36a.92.92,0,0,1-.09.37c0-.24,0-.5-.08-.73h-.29c0,.07-.07.06-.11.05-.06.2-.08.43-.15.64h0c0-.23,0-.41,0-.65-.1,0-.18,0-.27-.06s0-.08.05-.08h0a.31.31,0,0,0,.21,0l0-.41c-.15,0-.3,0-.45,0l-.19,1.34h0c-.06-.42-.1-.9-.15-1.34l-.07,0s0,0-.05,0-.07,0-.09,0l0,0c0,.13,0,.25,0,.39a.1.1,0,0,1,.08,0c0,.05-.08.06-.12.07h0c0,.05,0,.11-.07.12s-.08-.05-.05-.1,0,0,0,0,0,0-.06,0a2.07,2.07,0,0,1,0,.43c0,.09,0,.2,0,.27,0-.22-.12-.46-.15-.67h-.16s-.07,0-.07,0,0,0,0,0-.09,0-.13,0l0,.23c.11,0,.22-.06.29,0s-.07.06-.11.06h0c0,.08-.12,0-.16,0l0,.32s0,.08,0,.06,0-.27-.07-.38-.11,0-.12,0-.11,0-.17,0v0h-.19c0,.19-.05.38-.07.55.77.06,1.7,0,2.47.06l0,0c.22,0,.4,0,.62,0a2.16,2.16,0,0,1,.3,0h0a.33.33,0,0,0,0-.22s.06-.13.14-.15,0,.06,0,.08.12.18,0,.29l.34,0S31.57,33.55,31.54,33.54Z"/><path class="cls-1" d="M32,33.08c-.05,0-.11,0-.15,0s0,0,0,0-.13,0-.19,0a3.19,3.19,0,0,0,0,.54c.21,0,.44,0,.63,0,0-.17,0-.31-.07-.47Z"/><path class="cls-1" d="M26.84,33.4a1.49,1.49,0,0,0-.42,0v0s0,0,0,0-.15-.06-.2,0-.17,0-.26,0v.08c.26,0,.48.07.78.07,0,0,.07,0,.11,0v0C26.87,33.53,26.83,33.45,26.84,33.4Z"/><path class="cls-1" d="M24.91,33.26v0a3.55,3.55,0,0,0,.8.16h0s.12,0,.16,0v-.09a3.81,3.81,0,0,0-.66-.05A3,3,0,0,0,24.91,33.26Z"/><path class="cls-1" d="M28,32.24s0,0-.06,0a2,2,0,0,1,0,.34H28Z"/><path class="cls-1" d="M24.92,33.14h0s.09,0,.1,0h0l.16,0h0a.09.09,0,0,1,0-.08l-.25,0S24.9,33.13,24.92,33.14Z"/><path class="cls-1" d="M26.94,33.09v.18l.19,0,0,0c.11.16-.14.07-.15.12s-.11.09-.1.16a4.73,4.73,0,0,0,.65,0c0-.16,0-.36-.07-.52A2.49,2.49,0,0,0,26.94,33.09Z"/><path class="cls-1" d="M32.87,32.37h0S32.87,32.38,32.87,32.37Z"/><path class="cls-1" d="M32.54,32.43s-.11,0-.14,0v0Z"/><path class="cls-1" d="M33.54,32.85s-.09,0-.08,0a.5.5,0,0,0,.19,0S33.57,32.9,33.54,32.85Z"/><path class="cls-1" d="M33.45,32.87c-.05,0-.1,0-.16,0v0h.06S33.43,32.89,33.45,32.87Z"/><path class="cls-1" d="M32.86,33.14h0l.29,0v-.09h-.44l0,.13.12,0S32.82,33.14,32.86,33.14Z"/><path class="cls-1" d="M33.13,32.88h0a.08.08,0,0,1,0-.13s0,0,0-.07a1.93,1.93,0,0,1-.34,0l0,.26.4,0Z"/><path class="cls-1" d="M33.41,33.16h0c.1,0,.18,0,.28,0v-.08c-.13,0-.29,0-.42,0a.11.11,0,0,0,0,.08Z"/><path class="cls-1" d="M24.66,33l0,0s0,0,0,0S24.68,33,24.66,33Z"/><path class="cls-1" d="M24.68,32.71s-.07,0-.11,0,.1,0,.11.06A0,0,0,0,0,24.68,32.71Z"/><polygon class="cls-1" points="34.13 32.81 34.05 32.81 33.95 32.83 34.13 32.81"/><path class="cls-1" d="M33.46,32.75s.11,0,.18,0a.22.22,0,0,0,0-.11,1.31,1.31,0,0,1-.28,0c-.07,0,0,.08,0,.11S33.42,32.78,33.46,32.75Z"/><path class="cls-1" d="M28.34,32.63h.32l-.08-.37,0,0h-.22l0,.4h.05Z"/><path class="cls-1" d="M34.2,32.71s0-.09,0-.11-.22,0-.32,0a.11.11,0,0,0,0,.08Z"/><path class="cls-1" d="M30.84,32.61c0-.13,0-.27,0-.4s-.11,0-.12,0-.07,0-.12,0c0,.13-.06.28-.09.43A2.13,2.13,0,0,0,30.84,32.61Z"/><path class="cls-1" d="M31.25,32.38s0-.1,0-.17,0,0-.06,0,0,.25-.07.39h.14C31.27,32.52,31.23,32.44,31.25,32.38Z"/><polygon class="cls-1" points="29.87 32.11 29.8 32.11 29.8 32.13 29.87 32.11"/><rect class="cls-1" x="29.37" y="32.11" width="0.04" height="0.01"/><path class="cls-1" d="M32.4,32.42v0h0Z"/><path class="cls-1" d="M28.91,32.63H29c-.07-.12,0-.26,0-.4h-.06A2.67,2.67,0,0,0,28.91,32.63Z"/><path class="cls-1" d="M31.42,32.56a2.09,2.09,0,0,0,0-.34,1,1,0,0,0,0,.35Z"/><polygon class="cls-1" points="31.93 32.37 31.93 32.36 31.93 32.36 31.93 32.37"/><path class="cls-1" d="M32.1,32.71c-.06,0-.2-.05-.19.07a0,0,0,0,1-.07,0c0-.1-.11,0-.16-.05l0,.29c.15,0,.35,0,.51,0C32.14,32.9,32.16,32.75,32.1,32.71Z"/><path class="cls-1" d="M32.44,33c.06,0,.14,0,.19,0V32.7h-.26a2.23,2.23,0,0,1,0,.27S32.41,33,32.44,33Z"/><path class="cls-1" d="M31.93,32.51c.07,0,.12,0,.17,0v-.11a.14.14,0,0,0-.17,0C31.94,32.43,31.92,32.44,31.93,32.51Z"/><path class="cls-1" d="M31.8,32.42s0-.08,0-.09h-.06s0,0,0,0,0,.16,0,.22A.55.55,0,0,0,31.8,32.42Z"/><text class="cls-2" transform="translate(92.3 67.26)"> </text></svg>