<svg id="Layer_1" data-name="Layer 1" xmlns="http://www.w3.org/2000/svg" viewBox="0 0 386.14 353.82"><defs><style>.cls-1{fill:#fff;}</style></defs><title>qsArtboard 1</title><path class="cls-1" d="M109.52,180.93a7.91,7.91,0,0,0,1-3.78,7.25,7.25,0,1,0-7.25,7.56,7,7,0,0,0,3.88-1.14l-4.79-5.41,2.68-2.34Zm119.65-1.42h5.6L232,173Zm48.52,4.88h3.15a6.74,6.74,0,0,0,5.64-2.45,7.93,7.93,0,0,0,0-9.58,6.75,6.75,0,0,0-5.64-2.46h-3.15ZM288,186.31c-1.79,1.32-4.09,2.08-7.59,2.08h-6.93V166.33h6.93c3.5,0,5.8.76,7.59,2.08a11.33,11.33,0,0,1,0,17.9m-21.27,2.08h-3L251.41,174v14.37h-4.25V166.33h3l12.29,14.37V166.33h4.25Zm-23.76,0h-4.44l-2.08-4.89h-8.85l-2.08,4.89H221l9.45-22.06h3Zm-35-16.2c0,3.56,10.17,2.46,10.17,9.9,0,3.9-3.49,6.61-7.46,6.61a11.75,11.75,0,0,1-8-3.31l2.77-2.89a7.27,7.27,0,0,0,5.2,2.42c1.89,0,3.21-1.16,3.21-2.77,0-2.84-4.09-3.18-7.06-4.92a5.55,5.55,0,0,1-3.11-5c0-3.93,3.62-6.2,7.27-6.2a10.18,10.18,0,0,1,6.4,2.08l-2.21,3.15a5.89,5.89,0,0,0-3.81-1.45c-1.61,0-3.4.69-3.4,2.39m-18.47,4.22,10.87,12h-5.45l-9.67-10.84v10.84h-4.25V166.33h4.25v8.83l8.35-8.83h5.61Zm-30.06,1a7.42,7.42,0,0,0,7.53,7.56,7.73,7.73,0,0,0,6.24-3l2.93,2.61a11.58,11.58,0,0,1-9.26,4.22c-6.87,0-11.69-5-11.69-11.34S159.88,166,166.74,166a11.47,11.47,0,0,1,8.07,3.15l-2.74,2.9a7.52,7.52,0,0,0-5.36-2.27,7.36,7.36,0,0,0-7.34,7.56m-9.42,11H145.7V166.33H150Zm-10.84-9.3c0,3.37-1,5.7-2.84,7.34a10.77,10.77,0,0,1-13.23,0c-1.82-1.64-2.83-4-2.83-7.34V166.33h4.25v13.08a5.14,5.14,0,0,0,1.45,4.09,5.66,5.66,0,0,0,7.5,0,5.17,5.17,0,0,0,1.45-4.09V166.33h4.25Zm-26.72,5.3,3.59,4h-4.82l-1.39-1.58a11.74,11.74,0,0,1-6.55,1.89,11.34,11.34,0,1,1,11.5-11.34,11.51,11.51,0,0,1-2.33,7M283.93,261a125.06,125.06,0,1,0-6.69,6.87l34.45,34.44h7.79l-38.37-38.36-29.78-29.78,2.88-2.89Z"/></svg>